<?xml version="1.0" encoding="UTF-8" standalone="no"?>
<!DOCTYPE svg PUBLIC "-//W3C//DTD SVG 1.1//EN"
 "http://www.w3.org/Graphics/SVG/1.1/DTD/svg11.dtd">
<!-- Generated by graphviz version 2.43.20190912.0211 (20190912.0211)
 -->
<!-- Title: isp_gamma_dataflow Pages: 1 -->
<svg width="1047pt" height="614pt"
 viewBox="0.00 0.00 1047.08 613.68" xmlns="http://www.w3.org/2000/svg" xmlns:xlink="http://www.w3.org/1999/xlink">
<g id="graph0" class="graph" transform="scale(1 1) rotate(0) translate(21.6 592.08)">
<title>isp_gamma_dataflow</title>
<polygon fill="white" stroke="transparent" points="-21.6,21.6 -21.6,-592.08 1025.48,-592.08 1025.48,21.6 -21.6,21.6"/>
<text text-anchor="start" x="8" y="-553.08" font-family="Helvetica,sans-Serif" font-weight="bold" font-size="18.00">isp_gamma</text>
<text text-anchor="start" x="107" y="-553.08" font-family="Helvetica,sans-Serif" font-size="18.00"> data flow (RTL level)</text>
<text text-anchor="start" x="8" y="-540.68" font-family="Helvetica,sans-Serif" font-size="11.00" fill="#4b5563">signal names from ip/video/isp_gamma/src/isp_gamma.sv; clocks / resets (not drawn): clk, rst_n</text>
<text text-anchor="start" x="8" y="-529.68" font-family="Helvetica,sans-Serif" font-size="11.00" fill="#4b5563">box with double border = register (always_ff), ellipse = combinational (assign / always_comb), yellow = sub&#45;module instance; clusters = the always block that drives them</text>
<text text-anchor="start" x="8" y="-518.68" font-family="Helvetica,sans-Serif" font-size="11.00" fill="#4b5563">thick teal line = protocol bus (AXI4&#45;Stream / AXI4 / AXI4&#45;Lite, ready and responses implied); a bus signal also used elsewhere is drawn separately</text>
<g id="clust1" class="cluster">
<title>cluster_in</title>
<path fill="white" stroke="#9ca3af" stroke-dasharray="5,2" d="M20,-25C20,-25 89,-25 89,-25 95,-25 101,-31 101,-37 101,-37 101,-351 101,-351 101,-357 95,-363 89,-363 89,-363 20,-363 20,-363 14,-363 8,-357 8,-351 8,-351 8,-37 8,-37 8,-31 14,-25 20,-25"/>
<text text-anchor="middle" x="29.5" y="-351" font-family="Helvetica,sans-Serif" font-size="10.00" fill="#4b5563">inputs</text>
</g>
<g id="clust3" class="cluster">
<title>cluster_out</title>
<path fill="white" stroke="#9ca3af" stroke-dasharray="5,2" d="M917.88,-85C917.88,-85 983.88,-85 983.88,-85 989.88,-85 995.88,-91 995.88,-97 995.88,-97 995.88,-215 995.88,-215 995.88,-221 989.88,-227 983.88,-227 983.88,-227 917.88,-227 917.88,-227 911.88,-227 905.88,-221 905.88,-215 905.88,-215 905.88,-97 905.88,-97 905.88,-91 911.88,-85 917.88,-85"/>
<text text-anchor="middle" x="930.38" y="-215" font-family="Helvetica,sans-Serif" font-size="10.00" fill="#4b5563">outputs</text>
</g>
<g id="clust5" class="cluster">
<title>cluster_b0</title>
<path fill="white" stroke="#c4b5fd" d="M393.88,-8C393.88,-8 471.88,-8 471.88,-8 477.88,-8 483.88,-14 483.88,-20 483.88,-20 483.88,-74 483.88,-74 483.88,-80 477.88,-86 471.88,-86 471.88,-86 393.88,-86 393.88,-86 387.88,-86 381.88,-80 381.88,-74 381.88,-74 381.88,-20 381.88,-20 381.88,-14 387.88,-8 393.88,-8"/>
<text text-anchor="middle" x="429.88" y="-74.8" font-family="Helvetica,sans-Serif" font-size="9.00" fill="#6d28d9">always_ff @ line 48</text>
</g>
<g id="clust6" class="cluster">
<title>cluster_b1</title>
<path fill="white" stroke="#c4b5fd" d="M393.88,-351C393.88,-351 844.88,-351 844.88,-351 850.88,-351 856.88,-357 856.88,-363 856.88,-363 856.88,-417 856.88,-417 856.88,-423 850.88,-429 844.88,-429 844.88,-429 393.88,-429 393.88,-429 387.88,-429 381.88,-423 381.88,-417 381.88,-417 381.88,-363 381.88,-363 381.88,-357 387.88,-351 393.88,-351"/>
<text text-anchor="middle" x="429.88" y="-417.8" font-family="Helvetica,sans-Serif" font-size="9.00" fill="#6d28d9">always_ff @ line 54</text>
</g>
<g id="clust7" class="cluster">
<title>cluster_b2</title>
<path fill="white" stroke="#c4b5fd" d="M162,-10C162,-10 320.88,-10 320.88,-10 326.88,-10 332.88,-16 332.88,-22 332.88,-22 332.88,-72 332.88,-72 332.88,-78 326.88,-84 320.88,-84 320.88,-84 162,-84 162,-84 156,-84 150,-78 150,-72 150,-72 150,-22 150,-22 150,-16 156,-10 162,-10"/>
<text text-anchor="middle" x="190" y="-72.8" font-family="Helvetica,sans-Serif" font-size="9.00" fill="#6d28d9">initial @ line 47</text>
</g>
<!-- in:bypass_i -->
<g id="node1" class="node">
<title>in:bypass_i</title>
<path fill="#dcfce7" stroke="#15803d" d="M69.5,-336C69.5,-336 39.5,-336 39.5,-336 33.5,-336 27.5,-330 27.5,-324 27.5,-324 27.5,-312 27.5,-312 27.5,-306 33.5,-300 39.5,-300 39.5,-300 69.5,-300 69.5,-300 75.5,-300 81.5,-306 81.5,-312 81.5,-312 81.5,-324 81.5,-324 81.5,-330 75.5,-336 69.5,-336"/>
<text text-anchor="middle" x="54.5" y="-315.8" font-family="Helvetica,sans-Serif" font-size="9.00">bypass_i</text>
</g>
<!-- sig:by_f -->
<g id="node10" class="node">
<title>sig:by_f</title>
<polygon fill="#ede9fe" stroke="#7c3aed" points="598.88,-399 544.88,-399 544.88,-363 598.88,-363 598.88,-399"/>
<polygon fill="none" stroke="#7c3aed" points="602.88,-403 540.88,-403 540.88,-359 602.88,-359 602.88,-403"/>
<text text-anchor="middle" x="571.88" y="-378.8" font-family="Helvetica,sans-Serif" font-size="9.00">by_f</text>
</g>
<!-- in:bypass_i&#45;&gt;sig:by_f -->
<g id="edge2" class="edge">
<title>in:bypass_i&#45;&gt;sig:by_f</title>
<path fill="none" stroke="#4b5563" stroke-width="0.9" d="M81.87,-318.06C149.4,-318.66 333.85,-323.14 483.88,-353 500.91,-356.39 519.29,-362 534.74,-367.31"/>
<polygon fill="#4b5563" stroke="#4b5563" stroke-width="0.9" points="534.37,-369.41 540.73,-369.41 535.76,-365.44 534.37,-369.41"/>
</g>
<!-- sig:by -->
<g id="node15" class="node">
<title>sig:by</title>
<ellipse fill="#f3f4f6" stroke="#6b7280" cx="694.88" cy="-461" rx="27" ry="18"/>
<text text-anchor="middle" x="694.88" y="-458.8" font-family="Helvetica,sans-Serif" font-size="9.00">by</text>
</g>
<!-- in:bypass_i&#45;&gt;sig:by -->
<g id="edge1" class="edge">
<title>in:bypass_i&#45;&gt;sig:by</title>
<path fill="none" stroke="#4b5563" stroke-width="0.9" d="M61.22,-336.14C72.38,-368.06 100.43,-433.39 150,-460 324.47,-553.67 578.08,-494.54 664.08,-470.1"/>
<polygon fill="#4b5563" stroke="#4b5563" stroke-width="0.9" points="664.79,-472.08 669.98,-468.4 663.63,-468.04 664.79,-472.08"/>
</g>
<!-- in:lut_addr_i -->
<g id="node2" class="node">
<title>in:lut_addr_i</title>
<path fill="#dcfce7" stroke="#15803d" d="M72,-118C72,-118 37,-118 37,-118 31,-118 25,-112 25,-106 25,-106 25,-94 25,-94 25,-88 31,-82 37,-82 37,-82 72,-82 72,-82 78,-82 84,-88 84,-94 84,-94 84,-106 84,-106 84,-112 78,-118 72,-118"/>
<text text-anchor="middle" x="54.5" y="-102.8" font-family="Helvetica,sans-Serif" font-size="9.00">lut_addr_i</text>
<text text-anchor="middle" x="54.5" y="-92.8" font-family="Helvetica,sans-Serif" font-size="9.00">[IN_W&#45;1:0]</text>
</g>
<!-- sig:mem -->
<g id="node13" class="node">
<title>sig:mem</title>
<ellipse fill="#f3f4f6" stroke="#6b7280" cx="241.44" cy="-38" rx="83.38" ry="19.6"/>
<text text-anchor="middle" x="241.44" y="-40.8" font-family="Helvetica,sans-Serif" font-size="9.00">mem</text>
<text text-anchor="middle" x="241.44" y="-30.8" font-family="Helvetica,sans-Serif" font-size="9.00">[OUT_W&#45;1:0] x [2**IN_W]</text>
</g>
<!-- in:lut_addr_i&#45;&gt;sig:mem -->
<g id="edge3" class="edge">
<title>in:lut_addr_i&#45;&gt;sig:mem</title>
<path fill="none" stroke="#4b5563" stroke-width="0.9" d="M84.4,-90.31C111.67,-81.17 153.25,-67.23 186.62,-56.04"/>
<polygon fill="#4b5563" stroke="#4b5563" stroke-width="0.9" points="187.31,-58.03 192.33,-54.13 185.97,-54.04 187.31,-58.03"/>
</g>
<!-- in:lut_data_i -->
<g id="node3" class="node">
<title>in:lut_data_i</title>
<path fill="#dcfce7" stroke="#15803d" d="M77,-69C77,-69 32,-69 32,-69 26,-69 20,-63 20,-57 20,-57 20,-45 20,-45 20,-39 26,-33 32,-33 32,-33 77,-33 77,-33 83,-33 89,-39 89,-45 89,-45 89,-57 89,-57 89,-63 83,-69 77,-69"/>
<text text-anchor="middle" x="54.5" y="-53.8" font-family="Helvetica,sans-Serif" font-size="9.00">lut_data_i</text>
<text text-anchor="middle" x="54.5" y="-43.8" font-family="Helvetica,sans-Serif" font-size="9.00">[OUT_W&#45;1:0]</text>
</g>
<!-- in:lut_data_i&#45;&gt;sig:mem -->
<g id="edge4" class="edge">
<title>in:lut_data_i&#45;&gt;sig:mem</title>
<path fill="none" stroke="#4b5563" stroke-width="0.9" d="M89.42,-48.62C107.9,-47.32 131.67,-45.65 154.86,-44.02"/>
<polygon fill="#4b5563" stroke="#4b5563" stroke-width="0.9" points="155.22,-46.1 161.06,-43.58 154.92,-41.91 155.22,-46.1"/>
</g>
<!-- in:lut_we_i -->
<g id="node4" class="node">
<title>in:lut_we_i</title>
<path fill="#dcfce7" stroke="#15803d" d="M69.5,-167C69.5,-167 39.5,-167 39.5,-167 33.5,-167 27.5,-161 27.5,-155 27.5,-155 27.5,-143 27.5,-143 27.5,-137 33.5,-131 39.5,-131 39.5,-131 69.5,-131 69.5,-131 75.5,-131 81.5,-137 81.5,-143 81.5,-143 81.5,-155 81.5,-155 81.5,-161 75.5,-167 69.5,-167"/>
<text text-anchor="middle" x="54.5" y="-146.8" font-family="Helvetica,sans-Serif" font-size="9.00">lut_we_i</text>
</g>
<!-- in:lut_we_i&#45;&gt;sig:mem -->
<g id="edge5" class="edge">
<title>in:lut_we_i&#45;&gt;sig:mem</title>
<path fill="none" stroke="#4b5563" stroke-width="0.9" d="M81.79,-135.24C88.16,-131.72 94.9,-127.84 101,-124 123.66,-109.75 127.42,-103.37 150,-89 166.39,-78.56 185.02,-67.87 201.09,-58.99"/>
<polygon fill="#4b5563" stroke="#4b5563" stroke-width="0.9" points="202.19,-60.78 206.44,-56.05 200.17,-57.1 202.19,-60.78"/>
</g>
<!-- in:m_axis_* -->
<g id="node5" class="node">
<title>in:m_axis_*</title>
<path fill="#dcfce7" stroke="#15803d" d="M81,-216C81,-216 28,-216 28,-216 22,-216 16,-210 16,-204 16,-204 16,-192 16,-192 16,-186 22,-180 28,-180 28,-180 81,-180 81,-180 87,-180 93,-186 93,-192 93,-192 93,-204 93,-204 93,-210 87,-216 81,-216"/>
<text text-anchor="middle" x="54.5" y="-195.8" font-family="Helvetica,sans-Serif" font-size="9.00">m_axis_tready</text>
</g>
<!-- sig:en -->
<g id="node16" class="node">
<title>sig:en</title>
<ellipse fill="#f3f4f6" stroke="#6b7280" cx="241.44" cy="-198" rx="27" ry="18"/>
<text text-anchor="middle" x="241.44" y="-195.8" font-family="Helvetica,sans-Serif" font-size="9.00">en</text>
</g>
<!-- in:m_axis_*&#45;&gt;sig:en -->
<g id="edge6" class="edge">
<title>in:m_axis_*&#45;&gt;sig:en</title>
<path fill="none" stroke="#4b5563" stroke-width="0.9" d="M93.37,-198C127.15,-198 176.09,-198 208.08,-198"/>
<polygon fill="#4b5563" stroke="#4b5563" stroke-width="0.9" points="208.24,-200.1 214.24,-198 208.24,-195.9 208.24,-200.1"/>
</g>
<!-- in:s_axis_* -->
<g id="node6" class="node">
<title>in:s_axis_*</title>
<path fill="#dcfce7" stroke="#15803d" d="M77.5,-287C77.5,-287 31.5,-287 31.5,-287 25.5,-287 19.5,-281 19.5,-275 19.5,-275 19.5,-241 19.5,-241 19.5,-235 25.5,-229 31.5,-229 31.5,-229 77.5,-229 77.5,-229 83.5,-229 89.5,-235 89.5,-241 89.5,-241 89.5,-275 89.5,-275 89.5,-281 83.5,-287 77.5,-287"/>
<text text-anchor="middle" x="54.5" y="-275.8" font-family="Helvetica,sans-Serif" font-size="9.00">s_axis_*</text>
<text text-anchor="middle" x="54.5" y="-265.8" font-family="Helvetica,sans-Serif" font-size="9.00">s_axis_tdata</text>
<text text-anchor="middle" x="54.5" y="-255.8" font-family="Helvetica,sans-Serif" font-size="9.00">s_axis_tlast</text>
<text text-anchor="middle" x="54.5" y="-245.8" font-family="Helvetica,sans-Serif" font-size="9.00">s_axis_tuser</text>
<text text-anchor="middle" x="54.5" y="-235.8" font-family="Helvetica,sans-Serif" font-size="9.00">s_axis_tvalid</text>
</g>
<!-- out:m_axis_* -->
<g id="node7" class="node">
<title>out:m_axis_*</title>
<path fill="#dbeafe" stroke="#1d4ed8" d="M975.38,-200C975.38,-200 926.38,-200 926.38,-200 920.38,-200 914.38,-194 914.38,-188 914.38,-188 914.38,-154 914.38,-154 914.38,-148 920.38,-142 926.38,-142 926.38,-142 975.38,-142 975.38,-142 981.38,-142 987.38,-148 987.38,-154 987.38,-154 987.38,-188 987.38,-188 987.38,-194 981.38,-200 975.38,-200"/>
<text text-anchor="middle" x="950.88" y="-188.8" font-family="Helvetica,sans-Serif" font-size="9.00">m_axis_*</text>
<text text-anchor="middle" x="950.88" y="-178.8" font-family="Helvetica,sans-Serif" font-size="9.00">m_axis_tdata</text>
<text text-anchor="middle" x="950.88" y="-168.8" font-family="Helvetica,sans-Serif" font-size="9.00">m_axis_tlast</text>
<text text-anchor="middle" x="950.88" y="-158.8" font-family="Helvetica,sans-Serif" font-size="9.00">m_axis_tuser</text>
<text text-anchor="middle" x="950.88" y="-148.8" font-family="Helvetica,sans-Serif" font-size="9.00">m_axis_tvalid</text>
</g>
<!-- in:s_axis_*&#45;&gt;out:m_axis_* -->
<g id="edge7" class="edge">
<title>in:s_axis_*&#45;&gt;out:m_axis_*</title>
<path fill="none" stroke="#4b5563" stroke-width="0.9" d="M89.65,-231.69C93.53,-228.49 97.39,-225.21 101,-222 124,-201.52 122.48,-186.82 150,-173 377.4,-58.78 467.77,-131.45 721.88,-145 781.99,-148.2 797.12,-148.76 856.88,-156 873.65,-158.03 892.02,-160.87 907.98,-163.52"/>
<polygon fill="#4b5563" stroke="#4b5563" stroke-width="0.9" points="907.93,-165.65 914.2,-164.57 908.63,-161.5 907.93,-165.65"/>
</g>
<!-- sig:lut_q -->
<g id="node9" class="node">
<title>sig:lut_q</title>
<polygon fill="#ede9fe" stroke="#7c3aed" points="471.88,-56 393.88,-56 393.88,-20 471.88,-20 471.88,-56"/>
<polygon fill="none" stroke="#7c3aed" points="475.88,-60 389.88,-60 389.88,-16 475.88,-16 475.88,-60"/>
<text text-anchor="middle" x="432.88" y="-40.8" font-family="Helvetica,sans-Serif" font-size="9.00">lut_q</text>
<text text-anchor="middle" x="432.88" y="-30.8" font-family="Helvetica,sans-Serif" font-size="9.00">[3*OUT_W&#45;1:0]</text>
</g>
<!-- in:s_axis_*&#45;&gt;sig:lut_q -->
<g id="edge12" class="edge">
<title>in:s_axis_*&#45;&gt;sig:lut_q</title>
<path fill="none" stroke="#4b5563" stroke-width="0.9" d="M89.96,-233.69C93.96,-230.04 97.76,-226.11 101,-222 133.12,-181.23 108.6,-147.31 150,-116 215.64,-66.36 254.47,-111.98 332.88,-87 351.76,-80.99 371.52,-71.84 388.38,-63.08"/>
<polygon fill="#4b5563" stroke="#4b5563" stroke-width="0.9" points="389.66,-64.78 393.99,-60.13 387.7,-61.07 389.66,-64.78"/>
</g>
<!-- in:s_axis_*&#45;&gt;sig:by_f -->
<g id="edge10" class="edge">
<title>in:s_axis_*&#45;&gt;sig:by_f</title>
<path fill="none" stroke="#4b5563" stroke-width="0.9" d="M89.56,-264.17C107.5,-267.32 129.91,-271.09 150,-274 299.21,-295.59 343.36,-279.35 483.88,-334 501.4,-340.82 519.86,-350.41 535.24,-359.15"/>
<polygon fill="#4b5563" stroke="#4b5563" stroke-width="0.9" points="534.52,-361.15 540.77,-362.32 536.61,-357.51 534.52,-361.15"/>
</g>
<!-- sig:lin_q -->
<g id="node12" class="node">
<title>sig:lin_q</title>
<polygon fill="#ede9fe" stroke="#7c3aed" points="471.88,-399 393.88,-399 393.88,-363 471.88,-363 471.88,-399"/>
<polygon fill="none" stroke="#7c3aed" points="475.88,-403 389.88,-403 389.88,-359 475.88,-359 475.88,-403"/>
<text text-anchor="middle" x="432.88" y="-383.8" font-family="Helvetica,sans-Serif" font-size="9.00">lin_q</text>
<text text-anchor="middle" x="432.88" y="-373.8" font-family="Helvetica,sans-Serif" font-size="9.00">[3*OUT_W&#45;1:0]</text>
</g>
<!-- in:s_axis_*&#45;&gt;sig:lin_q -->
<g id="edge11" class="edge">
<title>in:s_axis_*&#45;&gt;sig:lin_q</title>
<path fill="none" stroke="#4b5563" stroke-width="0.9" d="M89.82,-272.17C107.65,-279.35 129.86,-288 150,-295 231.13,-323.21 327.08,-351.41 383.52,-367.47"/>
<polygon fill="#4b5563" stroke="#4b5563" stroke-width="0.9" points="383.18,-369.56 389.52,-369.18 384.33,-365.52 383.18,-369.56"/>
</g>
<!-- sig:acc -->
<g id="node14" class="node">
<title>sig:acc</title>
<ellipse fill="#f3f4f6" stroke="#6b7280" cx="432.88" cy="-274" rx="27" ry="18"/>
<text text-anchor="middle" x="432.88" y="-271.8" font-family="Helvetica,sans-Serif" font-size="9.00">acc</text>
</g>
<!-- in:s_axis_*&#45;&gt;sig:acc -->
<g id="edge8" class="edge">
<title>in:s_axis_*&#45;&gt;sig:acc</title>
<path fill="none" stroke="#4b5563" stroke-width="0.9" d="M89.56,-259.45C161.76,-262.52 329.29,-269.64 399.74,-272.63"/>
<polygon fill="#4b5563" stroke="#4b5563" stroke-width="0.9" points="399.77,-274.74 405.85,-272.89 399.95,-270.54 399.77,-274.74"/>
</g>
<!-- in:s_axis_*&#45;&gt;sig:by -->
<g id="edge9" class="edge">
<title>in:s_axis_*&#45;&gt;sig:by</title>
<path fill="none" stroke="#4b5563" stroke-width="0.9" d="M89.79,-285.12C93.58,-288.11 97.37,-291.12 101,-294 122.8,-311.3 126.1,-318.74 150,-333 246.23,-390.41 273.25,-404.48 381.88,-432 481.4,-457.21 603.75,-461.01 661.18,-461.27"/>
<polygon fill="#4b5563" stroke="#4b5563" stroke-width="0.9" points="661.52,-463.37 667.53,-461.28 661.53,-459.17 661.52,-463.37"/>
</g>
<!-- out:m_axis_*&#45;&gt;sig:en -->
<g id="edge13" class="edge">
<title>out:m_axis_*&#45;&gt;sig:en</title>
<path fill="none" stroke="#4b5563" stroke-width="0.9" d="M914.14,-173.52C865,-176.77 773.78,-182 695.88,-182 570.88,-182 570.88,-182 570.88,-182 462.09,-182 333.28,-190.87 274.53,-195.4"/>
<polygon fill="#4b5563" stroke="#4b5563" stroke-width="0.9" points="274.21,-193.32 268.39,-195.88 274.53,-197.5 274.21,-193.32"/>
</g>
<!-- out:s_axis_* -->
<g id="node8" class="node">
<title>out:s_axis_*</title>
<path fill="#dbeafe" stroke="#1d4ed8" d="M975.88,-129C975.88,-129 925.88,-129 925.88,-129 919.88,-129 913.88,-123 913.88,-117 913.88,-117 913.88,-105 913.88,-105 913.88,-99 919.88,-93 925.88,-93 925.88,-93 975.88,-93 975.88,-93 981.88,-93 987.88,-99 987.88,-105 987.88,-105 987.88,-117 987.88,-117 987.88,-123 981.88,-129 975.88,-129"/>
<text text-anchor="middle" x="950.88" y="-108.8" font-family="Helvetica,sans-Serif" font-size="9.00">s_axis_tready</text>
</g>
<!-- sig:lut_q&#45;&gt;out:m_axis_* -->
<g id="edge27" class="edge">
<title>sig:lut_q&#45;&gt;out:m_axis_*</title>
<path fill="none" stroke="#4b5563" stroke-width="0.9" d="M475.98,-41.19C553.51,-48.09 723.16,-68.02 856.88,-118 874.71,-124.66 893.16,-134.48 908.87,-143.86"/>
<polygon fill="#4b5563" stroke="#4b5563" stroke-width="0.9" points="907.88,-145.71 914.1,-147.02 910.05,-142.11 907.88,-145.71"/>
</g>
<!-- sig:by_f&#45;&gt;sig:by -->
<g id="edge17" class="edge">
<title>sig:by_f&#45;&gt;sig:by</title>
<path fill="none" stroke="#4b5563" stroke-width="0.9" d="M603.1,-400.98C623.7,-414.6 650.62,-432.4 669.78,-445.07"/>
<polygon fill="#4b5563" stroke="#4b5563" stroke-width="0.9" points="668.8,-446.94 674.96,-448.5 671.12,-443.43 668.8,-446.94"/>
</g>
<!-- sig:by_q -->
<g id="node11" class="node">
<title>sig:by_q</title>
<polygon fill="#ede9fe" stroke="#7c3aed" points="844.88,-399 790.88,-399 790.88,-363 844.88,-363 844.88,-399"/>
<polygon fill="none" stroke="#7c3aed" points="848.88,-403 786.88,-403 786.88,-359 848.88,-359 848.88,-403"/>
<text text-anchor="middle" x="817.88" y="-378.8" font-family="Helvetica,sans-Serif" font-size="9.00">by_q</text>
</g>
<!-- sig:by_q&#45;&gt;out:m_axis_* -->
<g id="edge18" class="edge">
<title>sig:by_q&#45;&gt;out:m_axis_*</title>
<path fill="none" stroke="#4b5563" stroke-width="0.9" d="M832.65,-358.92C855.5,-322.29 901.41,-248.69 928.5,-205.26"/>
<polygon fill="#4b5563" stroke="#4b5563" stroke-width="0.9" points="930.32,-206.32 931.71,-200.12 926.75,-204.1 930.32,-206.32"/>
</g>
<!-- sig:lin_q&#45;&gt;out:m_axis_* -->
<g id="edge26" class="edge">
<title>sig:lin_q&#45;&gt;out:m_axis_*</title>
<path fill="none" stroke="#4b5563" stroke-width="0.9" d="M475.97,-399.75C557.62,-432.97 739.76,-491.38 856.88,-410 924.12,-363.28 942.75,-260.34 947.9,-206.07"/>
<polygon fill="#4b5563" stroke="#4b5563" stroke-width="0.9" points="950,-206.18 948.44,-200.01 945.82,-205.8 950,-206.18"/>
</g>
<!-- sig:mem&#45;&gt;sig:lut_q -->
<g id="edge28" class="edge">
<title>sig:mem&#45;&gt;sig:lut_q</title>
<path fill="none" stroke="#4b5563" stroke-width="0.9" d="M324.98,-38C344.87,-38 365.49,-38 383.25,-38"/>
<polygon fill="#4b5563" stroke="#4b5563" stroke-width="0.9" points="383.66,-40.1 389.66,-38 383.66,-35.9 383.66,-40.1"/>
</g>
<!-- sig:acc&#45;&gt;out:m_axis_* -->
<g id="edge14" class="edge">
<title>sig:acc&#45;&gt;out:m_axis_*</title>
<path fill="none" stroke="#4b5563" stroke-width="0.9" d="M459.2,-269.37C524.95,-257.29 706.43,-223.56 856.88,-192 873.61,-188.49 891.98,-184.39 907.94,-180.76"/>
<polygon fill="#4b5563" stroke="#4b5563" stroke-width="0.9" points="908.78,-182.72 914.16,-179.33 907.84,-178.62 908.78,-182.72"/>
</g>
<!-- sig:acc&#45;&gt;sig:by_f -->
<g id="edge15" class="edge">
<title>sig:acc&#45;&gt;sig:by_f</title>
<path fill="none" stroke="#4b5563" stroke-width="0.9" d="M454.96,-284.43C464.13,-289.32 474.83,-295.49 483.88,-302 505.67,-317.69 528.05,-338.13 544.66,-354.29"/>
<polygon fill="#4b5563" stroke="#4b5563" stroke-width="0.9" points="543.43,-356.02 549.18,-358.72 546.37,-353.02 543.43,-356.02"/>
</g>
<!-- sig:by&#45;&gt;sig:by_q -->
<g id="edge16" class="edge">
<title>sig:by&#45;&gt;sig:by_q</title>
<path fill="none" stroke="#4b5563" stroke-width="0.9" d="M714.78,-448.5C732.63,-436.7 759.83,-418.72 781.67,-404.28"/>
<polygon fill="#4b5563" stroke="#4b5563" stroke-width="0.9" points="782.96,-405.94 786.81,-400.88 780.65,-402.44 782.96,-405.94"/>
</g>
<!-- sig:en&#45;&gt;out:m_axis_* -->
<g id="edge19" class="edge">
<title>sig:en&#45;&gt;out:m_axis_*</title>
<path fill="none" stroke="#4b5563" stroke-width="0.9" d="M267.43,-192.47C322.13,-180.85 456.73,-155 570.88,-155 570.88,-155 570.88,-155 695.88,-155 770.66,-155 857.59,-161.99 907.92,-166.73"/>
<polygon fill="#4b5563" stroke="#4b5563" stroke-width="0.9" points="908,-168.85 914.17,-167.33 908.39,-164.67 908,-168.85"/>
</g>
<!-- sig:en&#45;&gt;out:s_axis_* -->
<g id="edge20" class="edge">
<title>sig:en&#45;&gt;out:s_axis_*</title>
<path fill="none" stroke="#4b5563" stroke-width="0.9" d="M265.77,-189.54C293.17,-179.97 340.2,-164.73 381.88,-157 576.05,-120.98 812.76,-113.17 907.61,-111.47"/>
<polygon fill="#4b5563" stroke="#4b5563" stroke-width="0.9" points="907.69,-113.57 913.65,-111.37 907.62,-109.37 907.69,-113.57"/>
</g>
<!-- sig:en&#45;&gt;sig:lut_q -->
<g id="edge25" class="edge">
<title>sig:en&#45;&gt;sig:lut_q</title>
<path fill="none" stroke="#4b5563" stroke-width="0.9" d="M258.92,-184.08C290.58,-157.34 360.35,-98.41 400.94,-64.13"/>
<polygon fill="#4b5563" stroke="#4b5563" stroke-width="0.9" points="402.51,-65.55 405.74,-60.07 399.8,-62.34 402.51,-65.55"/>
</g>
<!-- sig:en&#45;&gt;sig:by_f -->
<g id="edge22" class="edge">
<title>sig:en&#45;&gt;sig:by_f</title>
<path fill="none" stroke="#4b5563" stroke-width="0.9" d="M267.75,-202.34C326,-212.48 465.99,-237.8 483.88,-250 521.1,-275.37 546.48,-322.46 559.82,-352.73"/>
<polygon fill="#4b5563" stroke="#4b5563" stroke-width="0.9" points="558.03,-353.87 562.33,-358.55 561.88,-352.2 558.03,-353.87"/>
</g>
<!-- sig:en&#45;&gt;sig:by_q -->
<g id="edge23" class="edge">
<title>sig:en&#45;&gt;sig:by_q</title>
<path fill="none" stroke="#4b5563" stroke-width="0.9" d="M268.71,-197.51C313.66,-197.33 407.82,-199.83 483.88,-221 598.74,-252.97 722.37,-322.87 781.47,-358.76"/>
<polygon fill="#4b5563" stroke="#4b5563" stroke-width="0.9" points="780.43,-360.59 786.65,-361.92 782.62,-357 780.43,-360.59"/>
</g>
<!-- sig:en&#45;&gt;sig:lin_q -->
<g id="edge24" class="edge">
<title>sig:en&#45;&gt;sig:lin_q</title>
<path fill="none" stroke="#4b5563" stroke-width="0.9" d="M257.62,-212.67C289.43,-243.39 363.47,-314.91 404.05,-354.12"/>
<polygon fill="#4b5563" stroke="#4b5563" stroke-width="0.9" points="403.05,-356.07 408.83,-358.73 405.97,-353.05 403.05,-356.07"/>
</g>
<!-- sig:en&#45;&gt;sig:acc -->
<g id="edge21" class="edge">
<title>sig:en&#45;&gt;sig:acc</title>
<path fill="none" stroke="#4b5563" stroke-width="0.9" d="M264.91,-207.02C299.52,-220.9 365.81,-247.49 403.62,-262.66"/>
<polygon fill="#4b5563" stroke="#4b5563" stroke-width="0.9" points="403.08,-264.71 409.43,-265 404.64,-260.81 403.08,-264.71"/>
</g>
</g>
</svg>
