<?xml version="1.0" encoding="UTF-8" standalone="no"?>
<!DOCTYPE svg PUBLIC "-//W3C//DTD SVG 1.1//EN"
 "http://www.w3.org/Graphics/SVG/1.1/DTD/svg11.dtd">
<!-- Generated by graphviz version 2.43.20190912.0211 (20190912.0211)
 -->
<!-- Title: bit_sync Pages: 1 -->
<svg width="218pt" height="98pt"
 viewBox="0.00 0.00 218.00 98.00" xmlns="http://www.w3.org/2000/svg" xmlns:xlink="http://www.w3.org/1999/xlink">
<g id="graph0" class="graph" transform="scale(1 1) rotate(0) translate(18 80)">
<title>bit_sync</title>
<polygon fill="white" stroke="transparent" points="-18,18 -18,-80 200,-80 200,18 -18,18"/>
<text text-anchor="middle" x="91" y="-45.2" font-family="Helvetica,sans-Serif" font-size="16.00">bit_sync RTL hierarchy</text>
<!-- n0 -->
<g id="node1" class="node">
<title>n0</title>
<path fill="#dcefe8" stroke="#176b59" d="M107.5,-36C107.5,-36 74.5,-36 74.5,-36 68.5,-36 62.5,-30 62.5,-24 62.5,-24 62.5,-12 62.5,-12 62.5,-6 68.5,0 74.5,0 74.5,0 107.5,0 107.5,0 113.5,0 119.5,-6 119.5,-12 119.5,-12 119.5,-24 119.5,-24 119.5,-30 113.5,-36 107.5,-36"/>
<text text-anchor="middle" x="91" y="-21" font-family="Helvetica,sans-Serif" font-size="10.00">bit_sync</text>
<text text-anchor="middle" x="91" y="-10" font-family="Helvetica,sans-Serif" font-size="10.00">(top)</text>
</g>
</g>
</svg>
