<?xml version="1.0" encoding="UTF-8" standalone="no"?>
<!DOCTYPE svg PUBLIC "-//W3C//DTD SVG 1.1//EN"
 "http://www.w3.org/Graphics/SVG/1.1/DTD/svg11.dtd">
<!-- Generated by graphviz version 2.43.20190912.0211 (20190912.0211)
 -->
<!-- Title: packet_formatter Pages: 1 -->
<svg width="279pt" height="98pt"
 viewBox="0.00 0.00 279.00 98.00" xmlns="http://www.w3.org/2000/svg" xmlns:xlink="http://www.w3.org/1999/xlink">
<g id="graph0" class="graph" transform="scale(1 1) rotate(0) translate(18 80)">
<title>packet_formatter</title>
<polygon fill="white" stroke="transparent" points="-18,18 -18,-80 261,-80 261,18 -18,18"/>
<text text-anchor="middle" x="121.5" y="-45.2" font-family="Helvetica,sans-Serif" font-size="16.00">packet_formatter RTL hierarchy</text>
<!-- n0 -->
<g id="node1" class="node">
<title>n0</title>
<path fill="#dcefe8" stroke="#176b59" d="M156.5,-36C156.5,-36 86.5,-36 86.5,-36 80.5,-36 74.5,-30 74.5,-24 74.5,-24 74.5,-12 74.5,-12 74.5,-6 80.5,0 86.5,0 86.5,0 156.5,0 156.5,0 162.5,0 168.5,-6 168.5,-12 168.5,-12 168.5,-24 168.5,-24 168.5,-30 162.5,-36 156.5,-36"/>
<text text-anchor="middle" x="121.5" y="-21" font-family="Helvetica,sans-Serif" font-size="10.00">packet_formatter</text>
<text text-anchor="middle" x="121.5" y="-10" font-family="Helvetica,sans-Serif" font-size="10.00">(top)</text>
</g>
</g>
</svg>
