<?xml version="1.0" encoding="UTF-8" standalone="no"?>
<!DOCTYPE svg PUBLIC "-//W3C//DTD SVG 1.1//EN"
 "http://www.w3.org/Graphics/SVG/1.1/DTD/svg11.dtd">
<!-- Generated by graphviz version 2.43.20190912.0211 (20190912.0211)
 -->
<!-- Title: rate_limiter Pages: 1 -->
<svg width="238pt" height="98pt"
 viewBox="0.00 0.00 238.00 98.00" xmlns="http://www.w3.org/2000/svg" xmlns:xlink="http://www.w3.org/1999/xlink">
<g id="graph0" class="graph" transform="scale(1 1) rotate(0) translate(18 80)">
<title>rate_limiter</title>
<polygon fill="white" stroke="transparent" points="-18,18 -18,-80 220,-80 220,18 -18,18"/>
<text text-anchor="middle" x="101" y="-45.2" font-family="Helvetica,sans-Serif" font-size="16.00">rate_limiter RTL hierarchy</text>
<!-- n0 -->
<g id="node1" class="node">
<title>n0</title>
<path fill="#dcefe8" stroke="#176b59" d="M123.5,-36C123.5,-36 78.5,-36 78.5,-36 72.5,-36 66.5,-30 66.5,-24 66.5,-24 66.5,-12 66.5,-12 66.5,-6 72.5,0 78.5,0 78.5,0 123.5,0 123.5,0 129.5,0 135.5,-6 135.5,-12 135.5,-12 135.5,-24 135.5,-24 135.5,-30 129.5,-36 123.5,-36"/>
<text text-anchor="middle" x="101" y="-21" font-family="Helvetica,sans-Serif" font-size="10.00">rate_limiter</text>
<text text-anchor="middle" x="101" y="-10" font-family="Helvetica,sans-Serif" font-size="10.00">(top)</text>
</g>
</g>
</svg>
