<?xml version="1.0" encoding="UTF-8" standalone="no"?>
<!DOCTYPE svg PUBLIC "-//W3C//DTD SVG 1.1//EN"
 "http://www.w3.org/Graphics/SVG/1.1/DTD/svg11.dtd">
<!-- Generated by graphviz version 2.43.20190912.0211 (20190912.0211)
 -->
<!-- Title: parity_gen_dataflow Pages: 1 -->
<svg width="865pt" height="189pt"
 viewBox="0.00 0.00 865.20 189.20" xmlns="http://www.w3.org/2000/svg" xmlns:xlink="http://www.w3.org/1999/xlink">
<g id="graph0" class="graph" transform="scale(1 1) rotate(0) translate(21.6 167.6)">
<title>parity_gen_dataflow</title>
<polygon fill="white" stroke="transparent" points="-21.6,21.6 -21.6,-167.6 843.6,-167.6 843.6,21.6 -21.6,21.6"/>
<text text-anchor="start" x="8" y="-128.6" font-family="Helvetica,sans-Serif" font-weight="bold" font-size="18.00">parity_gen</text>
<text text-anchor="start" x="99" y="-128.6" font-family="Helvetica,sans-Serif" font-size="18.00"> data flow (RTL level)</text>
<text text-anchor="start" x="8" y="-116.2" font-family="Helvetica,sans-Serif" font-size="11.00" fill="#4b5563">signal names from ip/integrity/parity_gen/src/parity_gen.sv; clocks / resets (not drawn): clk, rst_n</text>
<text text-anchor="start" x="8" y="-105.2" font-family="Helvetica,sans-Serif" font-size="11.00" fill="#4b5563">box with double border = register (always_ff), ellipse = combinational (assign / always_comb), yellow = sub&#45;module instance; clusters = the always block that drives them</text>
<text text-anchor="start" x="8" y="-94.2" font-family="Helvetica,sans-Serif" font-size="11.00" fill="#4b5563">thick teal line = protocol bus (AXI4&#45;Stream / AXI4 / AXI4&#45;Lite, ready and responses implied); a bus signal also used elsewhere is drawn separately</text>
<g id="clust1" class="cluster">
<title>cluster_in</title>
<path fill="white" stroke="#9ca3af" stroke-dasharray="5,2" d="M263,-8C263,-8 321,-8 321,-8 327,-8 333,-14 333,-20 333,-20 333,-67 333,-67 333,-73 327,-79 321,-79 321,-79 263,-79 263,-79 257,-79 251,-73 251,-67 251,-67 251,-20 251,-20 251,-14 257,-8 263,-8"/>
<text text-anchor="middle" x="272.5" y="-67" font-family="Helvetica,sans-Serif" font-size="10.00" fill="#4b5563">inputs</text>
</g>
<g id="clust3" class="cluster">
<title>cluster_out</title>
<path fill="white" stroke="#9ca3af" stroke-dasharray="5,2" d="M513,-8C513,-8 559,-8 559,-8 565,-8 571,-14 571,-20 571,-20 571,-67 571,-67 571,-73 565,-79 559,-79 559,-79 513,-79 513,-79 507,-79 501,-73 501,-67 501,-67 501,-20 501,-20 501,-14 507,-8 513,-8"/>
<text text-anchor="middle" x="525.5" y="-67" font-family="Helvetica,sans-Serif" font-size="10.00" fill="#4b5563">outputs</text>
</g>
<!-- in:data_i -->
<g id="node1" class="node">
<title>in:data_i</title>
<path fill="#dcfce7" stroke="#15803d" d="M313,-52C313,-52 271,-52 271,-52 265,-52 259,-46 259,-40 259,-40 259,-28 259,-28 259,-22 265,-16 271,-16 271,-16 313,-16 313,-16 319,-16 325,-22 325,-28 325,-28 325,-40 325,-40 325,-46 319,-52 313,-52"/>
<text text-anchor="middle" x="292" y="-36.8" font-family="Helvetica,sans-Serif" font-size="9.00">data_i</text>
<text text-anchor="middle" x="292" y="-26.8" font-family="Helvetica,sans-Serif" font-size="9.00">[WIDTH&#45;1:0]</text>
</g>
<!-- sig:p -->
<g id="node3" class="node">
<title>sig:p</title>
<ellipse fill="#f3f4f6" stroke="#6b7280" cx="417" cy="-34" rx="27" ry="18"/>
<text text-anchor="middle" x="417" y="-31.8" font-family="Helvetica,sans-Serif" font-size="9.00">p</text>
</g>
<!-- in:data_i&#45;&gt;sig:p -->
<g id="edge1" class="edge">
<title>in:data_i&#45;&gt;sig:p</title>
<path fill="none" stroke="#4b5563" stroke-width="0.9" d="M325.32,-34C343.19,-34 365.35,-34 383.29,-34"/>
<polygon fill="#4b5563" stroke="#4b5563" stroke-width="0.9" points="383.69,-36.1 389.69,-34 383.69,-31.9 383.69,-36.1"/>
</g>
<!-- out:parity_o -->
<g id="node2" class="node">
<title>out:parity_o</title>
<path fill="#dbeafe" stroke="#1d4ed8" d="M551,-52C551,-52 521,-52 521,-52 515,-52 509,-46 509,-40 509,-40 509,-28 509,-28 509,-22 515,-16 521,-16 521,-16 551,-16 551,-16 557,-16 563,-22 563,-28 563,-28 563,-40 563,-40 563,-46 557,-52 551,-52"/>
<text text-anchor="middle" x="536" y="-31.8" font-family="Helvetica,sans-Serif" font-size="9.00">parity_o</text>
</g>
<!-- sig:p&#45;&gt;out:parity_o -->
<g id="edge2" class="edge">
<title>sig:p&#45;&gt;out:parity_o</title>
<path fill="none" stroke="#4b5563" stroke-width="0.9" d="M444.26,-34C461.57,-34 484.36,-34 502.77,-34"/>
<polygon fill="#4b5563" stroke="#4b5563" stroke-width="0.9" points="502.83,-36.1 508.83,-34 502.83,-31.9 502.83,-36.1"/>
</g>
</g>
</svg>
