<?xml version="1.0" encoding="UTF-8" standalone="no"?>
<!DOCTYPE svg PUBLIC "-//W3C//DTD SVG 1.1//EN"
 "http://www.w3.org/Graphics/SVG/1.1/DTD/svg11.dtd">
<!-- Generated by graphviz version 2.43.20190912.0211 (20190912.0211)
 -->
<!-- Title: spi_master_dataflow Pages: 1 -->
<svg width="1851pt" height="1018pt"
 viewBox="0.00 0.00 1850.67 1018.20" xmlns="http://www.w3.org/2000/svg" xmlns:xlink="http://www.w3.org/1999/xlink">
<g id="graph0" class="graph" transform="scale(1 1) rotate(0) translate(21.6 996.6)">
<title>spi_master_dataflow</title>
<polygon fill="white" stroke="transparent" points="-21.6,21.6 -21.6,-996.6 1829.07,-996.6 1829.07,21.6 -21.6,21.6"/>
<text text-anchor="start" x="8" y="-957.6" font-family="Helvetica,sans-Serif" font-weight="bold" font-size="18.00">spi_top</text>
<text text-anchor="start" x="73" y="-957.6" font-family="Helvetica,sans-Serif" font-size="18.00"> data flow (RTL level)</text>
<text text-anchor="start" x="8" y="-945.2" font-family="Helvetica,sans-Serif" font-size="11.00" fill="#4b5563">signal names from ip/peripherals/spi_master/src/spi_top.sv; clocks / resets (not drawn): aclk, aresetn</text>
<text text-anchor="start" x="8" y="-934.2" font-family="Helvetica,sans-Serif" font-size="11.00" fill="#4b5563">box with double border = register (always_ff), ellipse = combinational (assign / always_comb), yellow = sub&#45;module instance; clusters = the always block that drives them</text>
<text text-anchor="start" x="8" y="-923.2" font-family="Helvetica,sans-Serif" font-size="11.00" fill="#4b5563">thick teal line = protocol bus (AXI4&#45;Stream / AXI4 / AXI4&#45;Lite, ready and responses implied); a bus signal also used elsewhere is drawn separately</text>
<g id="clust1" class="cluster">
<title>cluster_in</title>
<path fill="white" stroke="#9ca3af" stroke-dasharray="5,2" d="M20,-544C20,-544 89,-544 89,-544 95,-544 101,-550 101,-556 101,-556 101,-785 101,-785 101,-791 95,-797 89,-797 89,-797 20,-797 20,-797 14,-797 8,-791 8,-785 8,-785 8,-556 8,-556 8,-550 14,-544 20,-544"/>
<text text-anchor="middle" x="29.5" y="-785" font-family="Helvetica,sans-Serif" font-size="10.00" fill="#4b5563">inputs</text>
</g>
<g id="clust3" class="cluster">
<title>cluster_out</title>
<path fill="white" stroke="#9ca3af" stroke-dasharray="5,2" d="M1226.75,-501C1226.75,-501 1299.75,-501 1299.75,-501 1305.75,-501 1311.75,-507 1311.75,-513 1311.75,-513 1311.75,-830 1311.75,-830 1311.75,-836 1305.75,-842 1299.75,-842 1299.75,-842 1226.75,-842 1226.75,-842 1220.75,-842 1214.75,-836 1214.75,-830 1214.75,-830 1214.75,-513 1214.75,-513 1214.75,-507 1220.75,-501 1226.75,-501"/>
<text text-anchor="middle" x="1239.25" y="-830" font-family="Helvetica,sans-Serif" font-size="10.00" fill="#4b5563">outputs</text>
</g>
<g id="clust5" class="cluster">
<title>cluster_b0</title>
<path fill="white" stroke="#c4b5fd" d="M1461.29,-736C1461.29,-736 1526.29,-736 1526.29,-736 1532.29,-736 1538.29,-742 1538.29,-748 1538.29,-748 1538.29,-859 1538.29,-859 1538.29,-865 1532.29,-871 1526.29,-871 1526.29,-871 1461.29,-871 1461.29,-871 1455.29,-871 1449.29,-865 1449.29,-859 1449.29,-859 1449.29,-748 1449.29,-748 1449.29,-742 1455.29,-736 1461.29,-736"/>
<text text-anchor="middle" x="1492.29" y="-859.8" font-family="Helvetica,sans-Serif" font-size="9.00" fill="#6d28d9">always @ line 72</text>
</g>
<g id="clust6" class="cluster">
<title>cluster_b1</title>
<path fill="white" stroke="#c4b5fd" d="M1455.79,-331C1455.79,-331 1532.79,-331 1532.79,-331 1538.79,-331 1544.79,-337 1544.79,-343 1544.79,-343 1544.79,-397 1544.79,-397 1544.79,-403 1538.79,-409 1532.79,-409 1532.79,-409 1455.79,-409 1455.79,-409 1449.79,-409 1443.79,-403 1443.79,-397 1443.79,-397 1443.79,-343 1443.79,-343 1443.79,-337 1449.79,-331 1455.79,-331"/>
<text text-anchor="middle" x="1494.29" y="-397.8" font-family="Helvetica,sans-Serif" font-size="9.00" fill="#6d28d9">always_ff @ line 133</text>
</g>
<!-- in:s_axil_* -->
<g id="node1" class="node">
<title>in:s_axil_*</title>
<path fill="#dcfce7" stroke="#15803d" d="M81,-770C81,-770 28,-770 28,-770 22,-770 16,-764 16,-758 16,-758 16,-674 16,-674 16,-668 22,-662 28,-662 28,-662 81,-662 81,-662 87,-662 93,-668 93,-674 93,-674 93,-758 93,-758 93,-764 87,-770 81,-770"/>
<text text-anchor="middle" x="54.5" y="-758.8" font-family="Helvetica,sans-Serif" font-size="9.00">s_axil_*</text>
<text text-anchor="middle" x="54.5" y="-748.8" font-family="Helvetica,sans-Serif" font-size="9.00">s_axil_awaddr</text>
<text text-anchor="middle" x="54.5" y="-738.8" font-family="Helvetica,sans-Serif" font-size="9.00">s_axil_awvalid</text>
<text text-anchor="middle" x="54.5" y="-728.8" font-family="Helvetica,sans-Serif" font-size="9.00">s_axil_wdata</text>
<text text-anchor="middle" x="54.5" y="-718.8" font-family="Helvetica,sans-Serif" font-size="9.00">s_axil_wstrb</text>
<text text-anchor="middle" x="54.5" y="-708.8" font-family="Helvetica,sans-Serif" font-size="9.00">s_axil_wvalid</text>
<text text-anchor="middle" x="54.5" y="-698.8" font-family="Helvetica,sans-Serif" font-size="9.00">s_axil_bready</text>
<text text-anchor="middle" x="54.5" y="-688.8" font-family="Helvetica,sans-Serif" font-size="9.00">s_axil_araddr</text>
<text text-anchor="middle" x="54.5" y="-678.8" font-family="Helvetica,sans-Serif" font-size="9.00">s_axil_arvalid</text>
<text text-anchor="middle" x="54.5" y="-668.8" font-family="Helvetica,sans-Serif" font-size="9.00">s_axil_rready</text>
</g>
<!-- sig:ip_chk_b_q -->
<g id="node9" class="node">
<title>sig:ip_chk_b_q</title>
<polygon fill="#ede9fe" stroke="#7c3aed" points="1526.29,-784 1461.29,-784 1461.29,-748 1526.29,-748 1526.29,-784"/>
<polygon fill="none" stroke="#7c3aed" points="1530.29,-788 1457.29,-788 1457.29,-744 1530.29,-744 1530.29,-788"/>
<text text-anchor="middle" x="1493.79" y="-763.8" font-family="Helvetica,sans-Serif" font-size="9.00">ip_chk_b_q</text>
</g>
<!-- in:s_axil_*&#45;&gt;sig:ip_chk_b_q -->
<g id="edge1" class="edge">
<title>in:s_axil_*&#45;&gt;sig:ip_chk_b_q</title>
<path fill="none" stroke="#4b5563" stroke-width="0.9" d="M93.28,-762.23C131.12,-803.01 193.39,-856 261.5,-856 261.5,-856 261.5,-856 838.6,-856 1050.65,-856 1108.7,-891.52 1315.58,-845 1364.71,-833.95 1416.89,-808.86 1451.81,-789.9"/>
<polygon fill="#4b5563" stroke="#4b5563" stroke-width="0.9" points="1453.01,-791.64 1457.26,-786.92 1450.99,-787.96 1453.01,-791.64"/>
</g>
<!-- sig:ip_chk_r_q -->
<g id="node10" class="node">
<title>sig:ip_chk_r_q</title>
<polygon fill="#ede9fe" stroke="#7c3aed" points="1524.79,-841 1462.79,-841 1462.79,-805 1524.79,-805 1524.79,-841"/>
<polygon fill="none" stroke="#7c3aed" points="1528.79,-845 1458.79,-845 1458.79,-801 1528.79,-801 1528.79,-845"/>
<text text-anchor="middle" x="1493.79" y="-820.8" font-family="Helvetica,sans-Serif" font-size="9.00">ip_chk_r_q</text>
</g>
<!-- in:s_axil_*&#45;&gt;sig:ip_chk_r_q -->
<g id="edge2" class="edge">
<title>in:s_axil_*&#45;&gt;sig:ip_chk_r_q</title>
<path fill="none" stroke="#4b5563" stroke-width="0.9" d="M81.81,-770.12C114.84,-829.35 177.51,-916 261.5,-916 261.5,-916 261.5,-916 1264.25,-916 1336.29,-916 1412.3,-875.87 1455.98,-848.33"/>
<polygon fill="#4b5563" stroke="#4b5563" stroke-width="0.9" points="1457.21,-850.04 1461.14,-845.04 1454.95,-846.49 1457.21,-850.04"/>
</g>
<!-- inst:u_regs -->
<g id="node30" class="node">
<title>inst:u_regs</title>
<polygon fill="#fef9c3" stroke="#a16207" points="297,-186 228,-186 228,-150 297,-150 297,-186"/>
<text text-anchor="start" x="236" y="-170.8" font-family="Helvetica,sans-Serif" font-weight="bold" font-size="9.00">ip_axil_regs</text>
<text text-anchor="start" x="248" y="-161.8" font-family="Helvetica,sans-Serif" font-size="9.00" fill="#4b5563">u_regs</text>
</g>
<!-- in:s_axil_*&#45;&gt;inst:u_regs -->
<g id="edge45" class="edge">
<title>in:s_axil_*&#45;&gt;inst:u_regs</title>
<path fill="none" stroke="#0f766e" stroke-width="3.2" d="M93.05,-669.48C95.93,-665.05 98.63,-660.51 101,-656 188.5,-489.27 240.84,-265.63 256.5,-192.36"/>
<polygon fill="#0f766e" stroke="#0f766e" stroke-width="3.2" points="258.63,-192.44 257.82,-186.14 254.52,-191.57 258.63,-192.44"/>
<text text-anchor="middle" x="160.5" y="-605.8" font-family="Courier,monospace" font-size="9.00" fill="#0f766e">AXI4&#45;Lite</text>
<text text-anchor="middle" x="160.5" y="-595.8" font-family="Courier,monospace" font-size="9.00" fill="#0f766e">s_axil_* (17)</text>
</g>
<!-- in:s_axis_* -->
<g id="node2" class="node">
<title>in:s_axis_*</title>
<path fill="#dcfce7" stroke="#15803d" d="M77.5,-600C77.5,-600 31.5,-600 31.5,-600 25.5,-600 19.5,-594 19.5,-588 19.5,-588 19.5,-564 19.5,-564 19.5,-558 25.5,-552 31.5,-552 31.5,-552 77.5,-552 77.5,-552 83.5,-552 89.5,-558 89.5,-564 89.5,-564 89.5,-588 89.5,-588 89.5,-594 83.5,-600 77.5,-600"/>
<text text-anchor="middle" x="54.5" y="-588.8" font-family="Helvetica,sans-Serif" font-size="9.00">s_axis_*</text>
<text text-anchor="middle" x="54.5" y="-578.8" font-family="Helvetica,sans-Serif" font-size="9.00">s_axis_tdata</text>
<text text-anchor="middle" x="54.5" y="-568.8" font-family="Helvetica,sans-Serif" font-size="9.00">s_axis_tvalid</text>
<text text-anchor="middle" x="54.5" y="-558.8" font-family="Helvetica,sans-Serif" font-size="9.00">s_axis_tlast</text>
</g>
<!-- inst:u_txf -->
<g id="node31" class="node">
<title>inst:u_txf</title>
<polygon fill="#fef9c3" stroke="#a16207" points="1075.93,-163 1009.93,-163 1009.93,-127 1075.93,-127 1075.93,-163"/>
<text text-anchor="start" x="1017.93" y="-147.8" font-family="Helvetica,sans-Serif" font-weight="bold" font-size="9.00">ip_axis_fifo</text>
<text text-anchor="start" x="1032.93" y="-138.8" font-family="Helvetica,sans-Serif" font-size="9.00" fill="#4b5563">u_txf</text>
</g>
<!-- in:s_axis_*&#45;&gt;inst:u_txf -->
<g id="edge46" class="edge">
<title>in:s_axis_*&#45;&gt;inst:u_txf</title>
<path fill="none" stroke="#0f766e" stroke-width="3.2" d="M58.01,-551.95C66.86,-479.4 103.18,-260.59 228,-144 399.43,16.13 520.38,-47.58 752.27,-83 843.26,-96.9 948.6,-121.67 1003.75,-135.31"/>
<polygon fill="#0f766e" stroke="#0f766e" stroke-width="3.2" points="1003.25,-137.35 1009.58,-136.76 1004.26,-133.28 1003.25,-137.35"/>
<text text-anchor="middle" x="511.55" y="-59.8" font-family="Courier,monospace" font-size="9.00" fill="#0f766e">AXI4&#45;Stream</text>
<text text-anchor="middle" x="511.55" y="-49.8" font-family="Courier,monospace" font-size="9.00" fill="#0f766e">s_axis_t* (4)</text>
</g>
<!-- in:spi_miso_i -->
<g id="node3" class="node">
<title>in:spi_miso_i</title>
<path fill="#dcfce7" stroke="#15803d" d="M73,-649C73,-649 36,-649 36,-649 30,-649 24,-643 24,-637 24,-637 24,-625 24,-625 24,-619 30,-613 36,-613 36,-613 73,-613 73,-613 79,-613 85,-619 85,-625 85,-625 85,-637 85,-637 85,-643 79,-649 73,-649"/>
<text text-anchor="middle" x="54.5" y="-628.8" font-family="Helvetica,sans-Serif" font-size="9.00">spi_miso_i</text>
</g>
<!-- inst:u_eng -->
<g id="node32" class="node">
<title>inst:u_eng</title>
<polygon fill="#fef9c3" stroke="#a16207" points="642.91,-434 579.91,-434 579.91,-398 642.91,-398 642.91,-434"/>
<text text-anchor="start" x="587.91" y="-418.8" font-family="Helvetica,sans-Serif" font-weight="bold" font-size="9.00">spi_engine</text>
<text text-anchor="start" x="597.91" y="-409.8" font-family="Helvetica,sans-Serif" font-size="9.00" fill="#4b5563">u_eng</text>
</g>
<!-- in:spi_miso_i&#45;&gt;inst:u_eng -->
<g id="edge3" class="edge">
<title>in:spi_miso_i&#45;&gt;inst:u_eng</title>
<path fill="none" stroke="#4b5563" stroke-width="0.9" d="M85.09,-634.34C136.71,-639.06 245.81,-644.04 331,-614 439.68,-575.67 543.98,-481.86 588.21,-438.57"/>
<polygon fill="#4b5563" stroke="#4b5563" stroke-width="0.9" points="589.75,-440 592.55,-434.29 586.81,-437.01 589.75,-440"/>
</g>
<!-- out:m_axis_* -->
<g id="node4" class="node">
<title>out:m_axis_*</title>
<path fill="#dbeafe" stroke="#1d4ed8" d="M1287.75,-557C1287.75,-557 1238.75,-557 1238.75,-557 1232.75,-557 1226.75,-551 1226.75,-545 1226.75,-545 1226.75,-521 1226.75,-521 1226.75,-515 1232.75,-509 1238.75,-509 1238.75,-509 1287.75,-509 1287.75,-509 1293.75,-509 1299.75,-515 1299.75,-521 1299.75,-521 1299.75,-545 1299.75,-545 1299.75,-551 1293.75,-557 1287.75,-557"/>
<text text-anchor="middle" x="1263.25" y="-545.8" font-family="Helvetica,sans-Serif" font-size="9.00">m_axis_*</text>
<text text-anchor="middle" x="1263.25" y="-535.8" font-family="Helvetica,sans-Serif" font-size="9.00">m_axis_tdata</text>
<text text-anchor="middle" x="1263.25" y="-525.8" font-family="Helvetica,sans-Serif" font-size="9.00">m_axis_tvalid</text>
<text text-anchor="middle" x="1263.25" y="-515.8" font-family="Helvetica,sans-Serif" font-size="9.00">m_axis_tlast</text>
</g>
<!-- out:s_axil_* -->
<g id="node5" class="node">
<title>out:s_axil_*</title>
<path fill="#dbeafe" stroke="#1d4ed8" d="M1291.75,-815C1291.75,-815 1234.75,-815 1234.75,-815 1228.75,-815 1222.75,-809 1222.75,-803 1222.75,-803 1222.75,-729 1222.75,-729 1222.75,-723 1228.75,-717 1234.75,-717 1234.75,-717 1291.75,-717 1291.75,-717 1297.75,-717 1303.75,-723 1303.75,-729 1303.75,-729 1303.75,-803 1303.75,-803 1303.75,-809 1297.75,-815 1291.75,-815"/>
<text text-anchor="middle" x="1263.25" y="-803.8" font-family="Helvetica,sans-Serif" font-size="9.00">s_axil_*</text>
<text text-anchor="middle" x="1263.25" y="-793.8" font-family="Helvetica,sans-Serif" font-size="9.00">s_axil_awready</text>
<text text-anchor="middle" x="1263.25" y="-783.8" font-family="Helvetica,sans-Serif" font-size="9.00">s_axil_wready</text>
<text text-anchor="middle" x="1263.25" y="-773.8" font-family="Helvetica,sans-Serif" font-size="9.00">s_axil_bresp</text>
<text text-anchor="middle" x="1263.25" y="-763.8" font-family="Helvetica,sans-Serif" font-size="9.00">s_axil_bvalid</text>
<text text-anchor="middle" x="1263.25" y="-753.8" font-family="Helvetica,sans-Serif" font-size="9.00">s_axil_arready</text>
<text text-anchor="middle" x="1263.25" y="-743.8" font-family="Helvetica,sans-Serif" font-size="9.00">s_axil_rdata</text>
<text text-anchor="middle" x="1263.25" y="-733.8" font-family="Helvetica,sans-Serif" font-size="9.00">s_axil_rresp</text>
<text text-anchor="middle" x="1263.25" y="-723.8" font-family="Helvetica,sans-Serif" font-size="9.00">s_axil_rvalid</text>
</g>
<!-- out:s_axil_*&#45;&gt;sig:ip_chk_b_q -->
<g id="edge24" class="edge">
<title>out:s_axil_*&#45;&gt;sig:ip_chk_b_q</title>
<path fill="none" stroke="#4b5563" stroke-width="0.9" d="M1303.8,-766C1344.96,-766 1409.14,-766 1451.08,-766"/>
<polygon fill="#4b5563" stroke="#4b5563" stroke-width="0.9" points="1451.1,-768.1 1457.1,-766 1451.1,-763.9 1451.1,-768.1"/>
</g>
<!-- out:s_axil_*&#45;&gt;sig:ip_chk_r_q -->
<g id="edge25" class="edge">
<title>out:s_axil_*&#45;&gt;sig:ip_chk_r_q</title>
<path fill="none" stroke="#4b5563" stroke-width="0.9" d="M1303.8,-775.86C1345.44,-786.25 1410.66,-802.52 1452.56,-812.97"/>
<polygon fill="#4b5563" stroke="#4b5563" stroke-width="0.9" points="1452.24,-815.05 1458.57,-814.47 1453.26,-810.98 1452.24,-815.05"/>
</g>
<!-- out:spi_cs_n_o -->
<g id="node6" class="node">
<title>out:spi_cs_n_o</title>
<path fill="#dbeafe" stroke="#1d4ed8" d="M1289.25,-704C1289.25,-704 1237.25,-704 1237.25,-704 1231.25,-704 1225.25,-698 1225.25,-692 1225.25,-692 1225.25,-680 1225.25,-680 1225.25,-674 1231.25,-668 1237.25,-668 1237.25,-668 1289.25,-668 1289.25,-668 1295.25,-668 1301.25,-674 1301.25,-680 1301.25,-680 1301.25,-692 1301.25,-692 1301.25,-698 1295.25,-704 1289.25,-704"/>
<text text-anchor="middle" x="1263.25" y="-688.8" font-family="Helvetica,sans-Serif" font-size="9.00">spi_cs_n_o</text>
<text text-anchor="middle" x="1263.25" y="-678.8" font-family="Helvetica,sans-Serif" font-size="9.00">[NUM_CS&#45;1:0]</text>
</g>
<!-- out:spi_mosi_o -->
<g id="node7" class="node">
<title>out:spi_mosi_o</title>
<path fill="#dbeafe" stroke="#1d4ed8" d="M1283.25,-655C1283.25,-655 1243.25,-655 1243.25,-655 1237.25,-655 1231.25,-649 1231.25,-643 1231.25,-643 1231.25,-631 1231.25,-631 1231.25,-625 1237.25,-619 1243.25,-619 1243.25,-619 1283.25,-619 1283.25,-619 1289.25,-619 1295.25,-625 1295.25,-631 1295.25,-631 1295.25,-643 1295.25,-643 1295.25,-649 1289.25,-655 1283.25,-655"/>
<text text-anchor="middle" x="1263.25" y="-634.8" font-family="Helvetica,sans-Serif" font-size="9.00">spi_mosi_o</text>
</g>
<!-- out:spi_sclk_o -->
<g id="node8" class="node">
<title>out:spi_sclk_o</title>
<path fill="#dbeafe" stroke="#1d4ed8" d="M1281.25,-606C1281.25,-606 1245.25,-606 1245.25,-606 1239.25,-606 1233.25,-600 1233.25,-594 1233.25,-594 1233.25,-582 1233.25,-582 1233.25,-576 1239.25,-570 1245.25,-570 1245.25,-570 1281.25,-570 1281.25,-570 1287.25,-570 1293.25,-576 1293.25,-582 1293.25,-582 1293.25,-594 1293.25,-594 1293.25,-600 1287.25,-606 1281.25,-606"/>
<text text-anchor="middle" x="1263.25" y="-585.8" font-family="Helvetica,sans-Serif" font-size="9.00">spi_sclk_o</text>
</g>
<!-- sig:overrun -->
<g id="node11" class="node">
<title>sig:overrun</title>
<polygon fill="#ede9fe" stroke="#7c3aed" points="1520.79,-379 1466.79,-379 1466.79,-343 1520.79,-343 1520.79,-379"/>
<polygon fill="none" stroke="#7c3aed" points="1524.79,-383 1462.79,-383 1462.79,-339 1524.79,-339 1524.79,-383"/>
<text text-anchor="middle" x="1493.79" y="-363.8" font-family="Helvetica,sans-Serif" font-size="9.00">overrun</text>
<text text-anchor="middle" x="1493.79" y="-353.8" font-family="Helvetica,sans-Serif" font-size="9.00">[31:0]</text>
</g>
<!-- sig:status -->
<g id="node21" class="node">
<title>sig:status</title>
<ellipse fill="#f3f4f6" stroke="#6b7280" cx="1632.28" cy="-408" rx="28.98" ry="19.6"/>
<text text-anchor="middle" x="1632.28" y="-410.8" font-family="Helvetica,sans-Serif" font-size="9.00">status</text>
<text text-anchor="middle" x="1632.28" y="-400.8" font-family="Helvetica,sans-Serif" font-size="9.00">[31:0]</text>
</g>
<!-- sig:overrun&#45;&gt;sig:status -->
<g id="edge27" class="edge">
<title>sig:overrun&#45;&gt;sig:status</title>
<path fill="none" stroke="#4b5563" stroke-width="0.9" d="M1525.08,-371.43C1547.43,-379.13 1577.74,-389.56 1600.26,-397.32"/>
<polygon fill="#4b5563" stroke="#4b5563" stroke-width="0.9" points="1599.74,-399.36 1606.1,-399.33 1601.11,-395.39 1599.74,-399.36"/>
</g>
<!-- sig:busy -->
<g id="node12" class="node">
<title>sig:busy</title>
<ellipse fill="#fff7ed" stroke="#c2410c" cx="949.93" cy="-886" rx="27" ry="18"/>
<text text-anchor="middle" x="949.93" y="-883.8" font-family="Helvetica,sans-Serif" font-size="9.00">busy</text>
</g>
<!-- sig:busy&#45;&gt;sig:status -->
<g id="edge26" class="edge">
<title>sig:busy&#45;&gt;sig:status</title>
<path fill="none" stroke="#4b5563" stroke-width="0.9" d="M976.94,-886C1013.78,-886 1083.25,-886 1142.43,-886 1142.43,-886 1142.43,-886 1494.79,-886 1517.64,-886 1529.05,-890.57 1544.79,-874 1605.99,-809.53 1625.49,-521.94 1630.09,-433.78"/>
<polygon fill="#4b5563" stroke="#4b5563" stroke-width="0.9" points="1632.19,-433.88 1630.4,-427.78 1627.99,-433.66 1632.19,-433.88"/>
</g>
<!-- sig:rd -->
<g id="node13" class="node">
<title>sig:rd</title>
<ellipse fill="#f3f4f6" stroke="#6b7280" cx="1767.87" cy="-54" rx="39.7" ry="19.6"/>
<text text-anchor="middle" x="1767.87" y="-56.8" font-family="Helvetica,sans-Serif" font-size="9.00">rd</text>
<text text-anchor="middle" x="1767.87" y="-46.8" font-family="Helvetica,sans-Serif" font-size="9.00">[4*32&#45;1:0]</text>
</g>
<!-- sig:rd&#45;&gt;inst:u_regs -->
<g id="edge28" class="edge">
<title>sig:rd&#45;&gt;inst:u_regs</title>
<path fill="none" stroke="#4b5563" stroke-width="0.9" d="M1743.41,-38.09C1717.59,-22.16 1674.31,0 1633.28,0 402.6,0 402.6,0 402.6,0 328.85,0 286.81,-97.23 270.91,-143.75"/>
<polygon fill="#4b5563" stroke="#4b5563" stroke-width="0.9" points="268.83,-143.35 268.93,-149.7 272.82,-144.67 268.83,-143.35"/>
</g>
<!-- sig:regs -->
<g id="node14" class="node">
<title>sig:regs</title>
<ellipse fill="#fff7ed" stroke="#c2410c" cx="403.6" cy="-143" rx="39.7" ry="19.6"/>
<text text-anchor="middle" x="403.6" y="-145.8" font-family="Helvetica,sans-Serif" font-size="9.00">regs</text>
<text text-anchor="middle" x="403.6" y="-135.8" font-family="Helvetica,sans-Serif" font-size="9.00">[4*32&#45;1:0]</text>
</g>
<!-- sig:regs&#45;&gt;sig:rd -->
<g id="edge30" class="edge">
<title>sig:regs&#45;&gt;sig:rd</title>
<path fill="none" stroke="#4b5563" stroke-width="0.9" d="M440.94,-136.33C452.21,-134.41 464.69,-132.45 476.2,-131 877.44,-80.26 978.49,-54 1382.93,-54 1382.93,-54 1382.93,-54 1633.28,-54 1662.8,-54 1696,-54 1721.91,-54"/>
<polygon fill="#4b5563" stroke="#4b5563" stroke-width="0.9" points="1722,-56.1 1728,-54 1722,-51.9 1722,-56.1"/>
</g>
<!-- sig:regs&#45;&gt;inst:u_eng -->
<g id="edge29" class="edge">
<title>sig:regs&#45;&gt;inst:u_eng</title>
<path fill="none" stroke="#4b5563" stroke-width="0.9" d="M440.95,-136.23C472.73,-132.53 518.17,-132.93 546.91,-158 582.29,-188.86 601.56,-333.8 607.96,-391.86"/>
<polygon fill="#4b5563" stroke="#4b5563" stroke-width="0.9" points="605.88,-392.11 608.61,-397.85 610.05,-391.66 605.88,-392.11"/>
</g>
<!-- sig:rx_data -->
<g id="node15" class="node">
<title>sig:rx_data</title>
<ellipse fill="#fff7ed" stroke="#c2410c" cx="837.6" cy="-467" rx="52.15" ry="19.6"/>
<text text-anchor="middle" x="837.6" y="-469.8" font-family="Helvetica,sans-Serif" font-size="9.00">rx_data</text>
<text text-anchor="middle" x="837.6" y="-459.8" font-family="Helvetica,sans-Serif" font-size="9.00">[DATA_W&#45;1:0]</text>
</g>
<!-- inst:u_rxf -->
<g id="node33" class="node">
<title>inst:u_rxf</title>
<polygon fill="#fef9c3" stroke="#a16207" points="1075.93,-455 1009.93,-455 1009.93,-419 1075.93,-419 1075.93,-455"/>
<text text-anchor="start" x="1017.93" y="-439.8" font-family="Helvetica,sans-Serif" font-weight="bold" font-size="9.00">ip_axis_fifo</text>
<text text-anchor="start" x="1032.43" y="-430.8" font-family="Helvetica,sans-Serif" font-size="9.00" fill="#4b5563">u_rxf</text>
</g>
<!-- sig:rx_data&#45;&gt;inst:u_rxf -->
<g id="edge31" class="edge">
<title>sig:rx_data&#45;&gt;inst:u_rxf</title>
<path fill="none" stroke="#4b5563" stroke-width="0.9" d="M886.53,-459.93C922.34,-454.64 970.63,-447.52 1003.83,-442.62"/>
<polygon fill="#4b5563" stroke="#4b5563" stroke-width="0.9" points="1004.21,-444.69 1009.84,-441.73 1003.6,-440.53 1004.21,-444.69"/>
</g>
<!-- sig:rx_last -->
<g id="node16" class="node">
<title>sig:rx_last</title>
<ellipse fill="#fff7ed" stroke="#c2410c" cx="837.6" cy="-416" rx="27" ry="18"/>
<text text-anchor="middle" x="837.6" y="-413.8" font-family="Helvetica,sans-Serif" font-size="9.00">rx_last</text>
</g>
<!-- sig:rx_last&#45;&gt;inst:u_rxf -->
<g id="edge32" class="edge">
<title>sig:rx_last&#45;&gt;inst:u_rxf</title>
<path fill="none" stroke="#4b5563" stroke-width="0.9" d="M864.35,-418.66C899.52,-422.29 962.85,-428.83 1003.6,-433.04"/>
<polygon fill="#4b5563" stroke="#4b5563" stroke-width="0.9" points="1003.51,-435.14 1009.69,-433.67 1003.94,-430.97 1003.51,-435.14"/>
</g>
<!-- sig:rx_valid -->
<g id="node17" class="node">
<title>sig:rx_valid</title>
<ellipse fill="#fff7ed" stroke="#c2410c" cx="837.6" cy="-367" rx="28.08" ry="18"/>
<text text-anchor="middle" x="837.6" y="-364.8" font-family="Helvetica,sans-Serif" font-size="9.00">rx_valid</text>
</g>
<!-- sig:rx_valid&#45;&gt;sig:overrun -->
<g id="edge34" class="edge">
<title>sig:rx_valid&#45;&gt;sig:overrun</title>
<path fill="none" stroke="#4b5563" stroke-width="0.9" d="M866.29,-366.75C970.46,-365.79 1338.81,-362.41 1456.41,-361.33"/>
<polygon fill="#4b5563" stroke="#4b5563" stroke-width="0.9" points="1456.5,-363.43 1462.48,-361.28 1456.46,-359.23 1456.5,-363.43"/>
</g>
<!-- sig:rx_valid&#45;&gt;inst:u_rxf -->
<g id="edge33" class="edge">
<title>sig:rx_valid&#45;&gt;inst:u_rxf</title>
<path fill="none" stroke="#4b5563" stroke-width="0.9" d="M862.72,-375.3C897.69,-387.34 962.77,-409.75 1004.14,-423.99"/>
<polygon fill="#4b5563" stroke="#4b5563" stroke-width="0.9" points="1003.46,-425.98 1009.81,-425.94 1004.82,-422.01 1003.46,-425.98"/>
</g>
<!-- sig:rxf_lvl -->
<g id="node18" class="node">
<title>sig:rxf_lvl</title>
<ellipse fill="#fff7ed" stroke="#c2410c" cx="1383.93" cy="-433" rx="35.21" ry="19.6"/>
<text text-anchor="middle" x="1383.93" y="-435.8" font-family="Helvetica,sans-Serif" font-size="9.00">rxf_lvl</text>
<text text-anchor="middle" x="1383.93" y="-425.8" font-family="Helvetica,sans-Serif" font-size="9.00">[LW&#45;1:0]</text>
</g>
<!-- sig:rxf_lvl&#45;&gt;sig:status -->
<g id="edge35" class="edge">
<title>sig:rxf_lvl&#45;&gt;sig:status</title>
<path fill="none" stroke="#4b5563" stroke-width="0.9" d="M1418.93,-429.55C1465.92,-424.78 1550.23,-416.22 1597.24,-411.45"/>
<polygon fill="#4b5563" stroke="#4b5563" stroke-width="0.9" points="1597.59,-413.53 1603.34,-410.83 1597.16,-409.35 1597.59,-413.53"/>
</g>
<!-- sig:rxf_ready -->
<g id="node19" class="node">
<title>sig:rxf_ready</title>
<ellipse fill="#fff7ed" stroke="#c2410c" cx="1263.25" cy="-399" rx="31.51" ry="18"/>
<text text-anchor="middle" x="1263.25" y="-396.8" font-family="Helvetica,sans-Serif" font-size="9.00">rxf_ready</text>
</g>
<!-- sig:rxf_ready&#45;&gt;sig:overrun -->
<g id="edge36" class="edge">
<title>sig:rxf_ready&#45;&gt;sig:overrun</title>
<path fill="none" stroke="#4b5563" stroke-width="0.9" d="M1294.13,-394.03C1335.84,-387.1 1411.46,-374.52 1456.41,-367.05"/>
<polygon fill="#4b5563" stroke="#4b5563" stroke-width="0.9" points="1456.97,-369.09 1462.54,-366.03 1456.28,-364.94 1456.97,-369.09"/>
</g>
<!-- sig:rxf_user -->
<g id="node20" class="node">
<title>sig:rxf_user</title>
<ellipse fill="#fff7ed" stroke="#c2410c" cx="1263.25" cy="-475" rx="28.74" ry="18"/>
<text text-anchor="middle" x="1263.25" y="-472.8" font-family="Helvetica,sans-Serif" font-size="9.00">rxf_user</text>
</g>
<!-- sig:status&#45;&gt;sig:rd -->
<g id="edge37" class="edge">
<title>sig:status&#45;&gt;sig:rd</title>
<path fill="none" stroke="#4b5563" stroke-width="0.9" d="M1640.46,-388.97C1662.93,-329.44 1731.86,-146.77 1757.31,-79.34"/>
<polygon fill="#4b5563" stroke="#4b5563" stroke-width="0.9" points="1759.33,-79.92 1759.49,-73.56 1755.4,-78.43 1759.33,-79.92"/>
</g>
<!-- sig:txf_data -->
<g id="node22" class="node">
<title>sig:txf_data</title>
<ellipse fill="#fff7ed" stroke="#c2410c" cx="1263.25" cy="-321" rx="52.15" ry="19.6"/>
<text text-anchor="middle" x="1263.25" y="-323.8" font-family="Helvetica,sans-Serif" font-size="9.00">txf_data</text>
<text text-anchor="middle" x="1263.25" y="-313.8" font-family="Helvetica,sans-Serif" font-size="9.00">[DATA_W&#45;1:0]</text>
</g>
<!-- sig:txf_data&#45;&gt;inst:u_eng -->
<g id="edge38" class="edge">
<title>sig:txf_data&#45;&gt;inst:u_eng</title>
<path fill="none" stroke="#4b5563" stroke-width="0.9" d="M1211.18,-318.45C1123.25,-315.14 937.98,-312.95 785.27,-343 735.51,-352.79 682.35,-377.67 648.32,-395.66"/>
<polygon fill="#4b5563" stroke="#4b5563" stroke-width="0.9" points="647.33,-393.81 643.03,-398.49 649.31,-397.52 647.33,-393.81"/>
</g>
<!-- sig:txf_last -->
<g id="node23" class="node">
<title>sig:txf_last</title>
<ellipse fill="#fff7ed" stroke="#c2410c" cx="1263.25" cy="-270" rx="27" ry="18"/>
<text text-anchor="middle" x="1263.25" y="-267.8" font-family="Helvetica,sans-Serif" font-size="9.00">txf_last</text>
</g>
<!-- sig:txf_last&#45;&gt;inst:u_eng -->
<g id="edge39" class="edge">
<title>sig:txf_last&#45;&gt;inst:u_eng</title>
<path fill="none" stroke="#4b5563" stroke-width="0.9" d="M1236.27,-271.99C1164.28,-277.71 956.28,-295.63 785.27,-324 736.18,-332.14 719.15,-323.37 675.91,-348 656.61,-358.99 639.73,-377.78 628.23,-392.83"/>
<polygon fill="#4b5563" stroke="#4b5563" stroke-width="0.9" points="626.45,-391.71 624.54,-397.77 629.82,-394.22 626.45,-391.71"/>
</g>
<!-- sig:txf_lvl -->
<g id="node24" class="node">
<title>sig:txf_lvl</title>
<ellipse fill="#fff7ed" stroke="#c2410c" cx="1263.25" cy="-94" rx="35.21" ry="19.6"/>
<text text-anchor="middle" x="1263.25" y="-96.8" font-family="Helvetica,sans-Serif" font-size="9.00">txf_lvl</text>
<text text-anchor="middle" x="1263.25" y="-86.8" font-family="Helvetica,sans-Serif" font-size="9.00">[LW&#45;1:0]</text>
</g>
<!-- sig:txf_ready -->
<g id="node25" class="node">
<title>sig:txf_ready</title>
<ellipse fill="#fff7ed" stroke="#c2410c" cx="837.6" cy="-145" rx="31.35" ry="18"/>
<text text-anchor="middle" x="837.6" y="-142.8" font-family="Helvetica,sans-Serif" font-size="9.00">txf_ready</text>
</g>
<!-- sig:txf_ready&#45;&gt;inst:u_txf -->
<g id="edge40" class="edge">
<title>sig:txf_ready&#45;&gt;inst:u_txf</title>
<path fill="none" stroke="#4b5563" stroke-width="0.9" d="M869.04,-145C904.9,-145 964.52,-145 1003.52,-145"/>
<polygon fill="#4b5563" stroke="#4b5563" stroke-width="0.9" points="1003.6,-147.1 1009.6,-145 1003.6,-142.9 1003.6,-147.1"/>
</g>
<!-- sig:txf_user -->
<g id="node26" class="node">
<title>sig:txf_user</title>
<ellipse fill="#fff7ed" stroke="#c2410c" cx="1263.25" cy="-145" rx="28.08" ry="18"/>
<text text-anchor="middle" x="1263.25" y="-142.8" font-family="Helvetica,sans-Serif" font-size="9.00">txf_user</text>
</g>
<!-- sig:txf_valid -->
<g id="node27" class="node">
<title>sig:txf_valid</title>
<ellipse fill="#fff7ed" stroke="#c2410c" cx="1263.25" cy="-221" rx="28.74" ry="18"/>
<text text-anchor="middle" x="1263.25" y="-218.8" font-family="Helvetica,sans-Serif" font-size="9.00">txf_valid</text>
</g>
<!-- sig:txf_valid&#45;&gt;inst:u_eng -->
<g id="edge41" class="edge">
<title>sig:txf_valid&#45;&gt;inst:u_eng</title>
<path fill="none" stroke="#4b5563" stroke-width="0.9" d="M1234.49,-218.72C1145.4,-212.81 861.65,-204.87 675.91,-324 650.41,-340.35 632.4,-370.95 622.23,-392.36"/>
<polygon fill="#4b5563" stroke="#4b5563" stroke-width="0.9" points="620.3,-391.53 619.69,-397.86 624.11,-393.29 620.3,-391.53"/>
</g>
<!-- sig:wr_data -->
<g id="node28" class="node">
<title>sig:wr_data</title>
<ellipse fill="#fff7ed" stroke="#c2410c" cx="511.55" cy="-183" rx="35.21" ry="19.6"/>
<text text-anchor="middle" x="511.55" y="-185.8" font-family="Helvetica,sans-Serif" font-size="9.00">wr_data</text>
<text text-anchor="middle" x="511.55" y="-175.8" font-family="Helvetica,sans-Serif" font-size="9.00">[31:0]</text>
</g>
<!-- sig:wr_data&#45;&gt;sig:overrun -->
<g id="edge42" class="edge">
<title>sig:wr_data&#45;&gt;sig:overrun</title>
<path fill="none" stroke="#4b5563" stroke-width="0.9" d="M546.97,-183C586.92,-183 654.77,-183 713.09,-183 713.09,-183 713.09,-183 1264.25,-183 1361.06,-183 1441.49,-283.63 1475.44,-333.57"/>
<polygon fill="#4b5563" stroke="#4b5563" stroke-width="0.9" points="1473.88,-335.01 1478.97,-338.82 1477.37,-332.66 1473.88,-335.01"/>
</g>
<!-- sig:wr_pulse -->
<g id="node29" class="node">
<title>sig:wr_pulse</title>
<ellipse fill="#fff7ed" stroke="#c2410c" cx="714.09" cy="-32" rx="38.37" ry="19.6"/>
<text text-anchor="middle" x="714.09" y="-34.8" font-family="Helvetica,sans-Serif" font-size="9.00">wr_pulse</text>
<text text-anchor="middle" x="714.09" y="-24.8" font-family="Helvetica,sans-Serif" font-size="9.00">[3:0]</text>
</g>
<!-- sig:wr_pulse&#45;&gt;sig:overrun -->
<g id="edge43" class="edge">
<title>sig:wr_pulse&#45;&gt;sig:overrun</title>
<path fill="none" stroke="#4b5563" stroke-width="0.9" d="M752.34,-30.71C798.48,-29.23 879.49,-27 948.93,-27 948.93,-27 948.93,-27 1264.25,-27 1411.99,-27 1471.22,-252.34 1487.66,-332.84"/>
<polygon fill="#4b5563" stroke="#4b5563" stroke-width="0.9" points="1485.62,-333.36 1488.86,-338.83 1489.74,-332.53 1485.62,-333.36"/>
</g>
<!-- inst:u_regs&#45;&gt;out:s_axil_* -->
<g id="edge12" class="edge">
<title>inst:u_regs&#45;&gt;out:s_axil_*</title>
<path fill="none" stroke="#4b5563" stroke-width="0.9" d="M265.25,-186.18C273.68,-268.7 313.41,-604 402.6,-604 402.6,-604 402.6,-604 1043.93,-604 1083.9,-604 1166.56,-674.92 1217.92,-722.92"/>
<polygon fill="#4b5563" stroke="#4b5563" stroke-width="0.9" points="1216.67,-724.62 1222.48,-727.2 1219.54,-721.56 1216.67,-724.62"/>
</g>
<!-- inst:u_regs&#45;&gt;sig:regs -->
<g id="edge13" class="edge">
<title>inst:u_regs&#45;&gt;sig:regs</title>
<path fill="none" stroke="#4b5563" stroke-width="0.9" d="M297.17,-161.95C315.97,-158.57 339.59,-154.33 359.7,-150.71"/>
<polygon fill="#4b5563" stroke="#4b5563" stroke-width="0.9" points="360.28,-152.74 365.82,-149.61 359.54,-148.6 360.28,-152.74"/>
</g>
<!-- inst:u_regs&#45;&gt;sig:wr_data -->
<g id="edge14" class="edge">
<title>inst:u_regs&#45;&gt;sig:wr_data</title>
<path fill="none" stroke="#4b5563" stroke-width="0.9" d="M297.08,-170.04C342.12,-172.77 422.01,-177.62 470.24,-180.55"/>
<polygon fill="#4b5563" stroke="#4b5563" stroke-width="0.9" points="470.14,-182.65 476.25,-180.92 470.39,-178.46 470.14,-182.65"/>
</g>
<!-- inst:u_regs&#45;&gt;sig:wr_pulse -->
<g id="edge15" class="edge">
<title>inst:u_regs&#45;&gt;sig:wr_pulse</title>
<path fill="none" stroke="#4b5563" stroke-width="0.9" d="M287.08,-149.94C324.69,-122.28 401.66,-70.29 476.2,-48 541.72,-28.41 621.81,-27.49 670.06,-29.27"/>
<polygon fill="#4b5563" stroke="#4b5563" stroke-width="0.9" points="670,-31.37 676.08,-29.51 670.17,-27.17 670,-31.37"/>
</g>
<!-- inst:u_txf&#45;&gt;sig:txf_data -->
<g id="edge19" class="edge">
<title>inst:u_txf&#45;&gt;sig:txf_data</title>
<path fill="none" stroke="#4b5563" stroke-width="0.9" d="M1058.25,-163C1070.86,-178.35 1090.09,-200.63 1108.93,-218 1150.68,-256.51 1162.73,-264.94 1210.93,-295 1215.19,-297.66 1219.76,-300.28 1224.35,-302.77"/>
<polygon fill="#4b5563" stroke="#4b5563" stroke-width="0.9" points="1223.45,-304.67 1229.74,-305.63 1225.42,-300.96 1223.45,-304.67"/>
</g>
<!-- inst:u_txf&#45;&gt;sig:txf_last -->
<g id="edge20" class="edge">
<title>inst:u_txf&#45;&gt;sig:txf_last</title>
<path fill="none" stroke="#4b5563" stroke-width="0.9" d="M1069.53,-163.07C1081.36,-171.23 1095.7,-180.85 1108.93,-189 1153.14,-216.25 1164.71,-222.32 1210.93,-246 1218.53,-249.9 1226.88,-253.91 1234.6,-257.52"/>
<polygon fill="#4b5563" stroke="#4b5563" stroke-width="0.9" points="1234.03,-259.57 1240.36,-260.18 1235.8,-255.76 1234.03,-259.57"/>
</g>
<!-- inst:u_txf&#45;&gt;sig:txf_lvl -->
<g id="edge21" class="edge">
<title>inst:u_txf&#45;&gt;sig:txf_lvl</title>
<path fill="none" stroke="#4b5563" stroke-width="0.9" d="M1076.14,-137.47C1115.6,-128.26 1182.34,-112.67 1224.26,-102.87"/>
<polygon fill="#4b5563" stroke="#4b5563" stroke-width="0.9" points="1224.9,-104.88 1230.26,-101.47 1223.94,-100.79 1224.9,-104.88"/>
</g>
<!-- inst:u_txf&#45;&gt;sig:txf_user -->
<g id="edge22" class="edge">
<title>inst:u_txf&#45;&gt;sig:txf_user</title>
<path fill="none" stroke="#4b5563" stroke-width="0.9" d="M1076.14,-145C1116.98,-145 1187.06,-145 1228.59,-145"/>
<polygon fill="#4b5563" stroke="#4b5563" stroke-width="0.9" points="1228.75,-147.1 1234.75,-145 1228.75,-142.9 1228.75,-147.1"/>
</g>
<!-- inst:u_txf&#45;&gt;sig:txf_valid -->
<g id="edge23" class="edge">
<title>inst:u_txf&#45;&gt;sig:txf_valid</title>
<path fill="none" stroke="#4b5563" stroke-width="0.9" d="M1076.14,-156.21C1118.08,-170.81 1190.86,-196.15 1231.88,-210.43"/>
<polygon fill="#4b5563" stroke="#4b5563" stroke-width="0.9" points="1231.34,-212.46 1237.69,-212.45 1232.72,-208.5 1231.34,-212.46"/>
</g>
<!-- inst:u_eng&#45;&gt;out:spi_cs_n_o -->
<g id="edge4" class="edge">
<title>inst:u_eng&#45;&gt;out:spi_cs_n_o</title>
<path fill="none" stroke="#4b5563" stroke-width="0.9" d="M621.2,-434.04C631.57,-453.38 650.65,-483.51 675.91,-500 770.94,-562.05 1087.25,-525.74 1177.93,-594 1204.77,-614.2 1187,-638.42 1210.93,-662 1213.64,-664.67 1216.7,-667.09 1219.96,-669.26"/>
<polygon fill="#4b5563" stroke="#4b5563" stroke-width="0.9" points="1218.98,-671.12 1225.19,-672.47 1221.18,-667.55 1218.98,-671.12"/>
</g>
<!-- inst:u_eng&#45;&gt;out:spi_mosi_o -->
<g id="edge5" class="edge">
<title>inst:u_eng&#45;&gt;out:spi_mosi_o</title>
<path fill="none" stroke="#4b5563" stroke-width="0.9" d="M627.44,-434.03C639.36,-447.3 657.1,-464.89 675.91,-476 719.85,-501.95 735.53,-499.58 785.27,-511 871.18,-530.72 1102.56,-521.3 1177.93,-567 1199.44,-580.05 1191.57,-596.93 1210.93,-613 1215.32,-616.65 1220.35,-619.87 1225.52,-622.68"/>
<polygon fill="#4b5563" stroke="#4b5563" stroke-width="0.9" points="1224.85,-624.7 1231.15,-625.57 1226.76,-620.96 1224.85,-624.7"/>
</g>
<!-- inst:u_eng&#45;&gt;out:spi_sclk_o -->
<g id="edge6" class="edge">
<title>inst:u_eng&#45;&gt;out:spi_sclk_o</title>
<path fill="none" stroke="#4b5563" stroke-width="0.9" d="M643.11,-433.5C676.81,-451.79 733.08,-479.63 785.27,-493 955.53,-536.62 1014.32,-475.79 1177.93,-540 1194.81,-546.62 1195.31,-554.78 1210.93,-564 1216.2,-567.11 1221.94,-570.13 1227.62,-572.91"/>
<polygon fill="#4b5563" stroke="#4b5563" stroke-width="0.9" points="1226.93,-574.91 1233.25,-575.62 1228.75,-571.13 1226.93,-574.91"/>
</g>
<!-- inst:u_eng&#45;&gt;sig:busy -->
<g id="edge7" class="edge">
<title>inst:u_eng&#45;&gt;sig:busy</title>
<path fill="none" stroke="#4b5563" stroke-width="0.9" d="M616.77,-434.21C625.03,-466.59 644.95,-535.59 675.91,-587 749.31,-708.93 877.38,-825.02 927.73,-868.24"/>
<polygon fill="#4b5563" stroke="#4b5563" stroke-width="0.9" points="926.43,-869.89 932.36,-872.19 929.16,-866.7 926.43,-869.89"/>
</g>
<!-- inst:u_eng&#45;&gt;sig:rx_data -->
<g id="edge8" class="edge">
<title>inst:u_eng&#45;&gt;sig:rx_data</title>
<path fill="none" stroke="#4b5563" stroke-width="0.9" d="M643.11,-422.98C679.99,-431.37 742.37,-445.57 786.32,-455.56"/>
<polygon fill="#4b5563" stroke="#4b5563" stroke-width="0.9" points="786.08,-457.66 792.39,-456.94 787.01,-453.56 786.08,-457.66"/>
</g>
<!-- inst:u_eng&#45;&gt;sig:rx_last -->
<g id="edge9" class="edge">
<title>inst:u_eng&#45;&gt;sig:rx_last</title>
<path fill="none" stroke="#4b5563" stroke-width="0.9" d="M643.11,-416C685.4,-416 761.23,-416 804.33,-416"/>
<polygon fill="#4b5563" stroke="#4b5563" stroke-width="0.9" points="804.45,-418.1 810.45,-416 804.45,-413.9 804.45,-418.1"/>
</g>
<!-- inst:u_eng&#45;&gt;sig:rx_valid -->
<g id="edge10" class="edge">
<title>inst:u_eng&#45;&gt;sig:rx_valid</title>
<path fill="none" stroke="#4b5563" stroke-width="0.9" d="M643.11,-409.29C685.4,-400.05 761.23,-383.47 804.33,-374.05"/>
<polygon fill="#4b5563" stroke="#4b5563" stroke-width="0.9" points="805.03,-376.05 810.45,-372.72 804.14,-371.95 805.03,-376.05"/>
</g>
<!-- inst:u_eng&#45;&gt;sig:txf_ready -->
<g id="edge11" class="edge">
<title>inst:u_eng&#45;&gt;sig:txf_ready</title>
<path fill="none" stroke="#4b5563" stroke-width="0.9" d="M614.1,-397.86C618.34,-361.7 632.42,-279.78 675.91,-229 709.69,-189.56 766.65,-166.07 802.9,-154.35"/>
<polygon fill="#4b5563" stroke="#4b5563" stroke-width="0.9" points="803.89,-156.24 808.98,-152.43 802.62,-152.24 803.89,-156.24"/>
</g>
<!-- inst:u_rxf&#45;&gt;out:m_axis_* -->
<g id="edge44" class="edge">
<title>inst:u_rxf&#45;&gt;out:m_axis_*</title>
<path fill="none" stroke="#0f766e" stroke-width="3.2" d="M1076.14,-450.37C1112.59,-465.51 1168.17,-488.65 1177.93,-493 1192.04,-499.29 1207.34,-506.45 1220.99,-512.95"/>
<polygon fill="#0f766e" stroke="#0f766e" stroke-width="3.2" points="1220.41,-515 1226.73,-515.69 1222.22,-511.21 1220.41,-515"/>
<text text-anchor="middle" x="1143.43" y="-505.8" font-family="Courier,monospace" font-size="9.00" fill="#0f766e">AXI4&#45;Stream</text>
<text text-anchor="middle" x="1143.43" y="-495.8" font-family="Courier,monospace" font-size="9.00" fill="#0f766e">m_axis_t* (4)</text>
</g>
<!-- inst:u_rxf&#45;&gt;sig:rxf_lvl -->
<g id="edge16" class="edge">
<title>inst:u_rxf&#45;&gt;sig:rxf_lvl</title>
<path fill="none" stroke="#4b5563" stroke-width="0.9" d="M1076.12,-436.62C1138.09,-435.89 1273.81,-434.29 1342.05,-433.48"/>
<polygon fill="#4b5563" stroke="#4b5563" stroke-width="0.9" points="1342.46,-435.58 1348.44,-433.41 1342.41,-431.38 1342.46,-435.58"/>
</g>
<!-- inst:u_rxf&#45;&gt;sig:rxf_ready -->
<g id="edge17" class="edge">
<title>inst:u_rxf&#45;&gt;sig:rxf_ready</title>
<path fill="none" stroke="#4b5563" stroke-width="0.9" d="M1076.14,-431.39C1116.39,-424.39 1185.03,-412.44 1226.75,-405.18"/>
<polygon fill="#4b5563" stroke="#4b5563" stroke-width="0.9" points="1227.16,-407.24 1232.71,-404.14 1226.44,-403.1 1227.16,-407.24"/>
</g>
<!-- inst:u_rxf&#45;&gt;sig:rxf_user -->
<g id="edge18" class="edge">
<title>inst:u_rxf&#45;&gt;sig:rxf_user</title>
<path fill="none" stroke="#4b5563" stroke-width="0.9" d="M1076.14,-442.61C1117.1,-449.74 1187.45,-461.98 1228.93,-469.2"/>
<polygon fill="#4b5563" stroke="#4b5563" stroke-width="0.9" points="1228.81,-471.31 1235.08,-470.27 1229.53,-467.17 1228.81,-471.31"/>
</g>
</g>
</svg>
