<?xml version="1.0" encoding="UTF-8" standalone="no"?>
<!DOCTYPE svg PUBLIC "-//W3C//DTD SVG 1.1//EN"
 "http://www.w3.org/Graphics/SVG/1.1/DTD/svg11.dtd">
<!-- Generated by graphviz version 2.43.20190912.0211 (20190912.0211)
 -->
<!-- Title: intc_dataflow Pages: 1 -->
<svg width="2268pt" height="664pt"
 viewBox="0.00 0.00 2268.29 664.20" xmlns="http://www.w3.org/2000/svg" xmlns:xlink="http://www.w3.org/1999/xlink">
<g id="graph0" class="graph" transform="scale(1 1) rotate(0) translate(21.6 642.6)">
<title>intc_dataflow</title>
<polygon fill="white" stroke="transparent" points="-21.6,21.6 -21.6,-642.6 2246.69,-642.6 2246.69,21.6 -21.6,21.6"/>
<text text-anchor="start" x="8" y="-603.6" font-family="Helvetica,sans-Serif" font-weight="bold" font-size="18.00">intc_top</text>
<text text-anchor="start" x="79" y="-603.6" font-family="Helvetica,sans-Serif" font-size="18.00"> data flow (RTL level)</text>
<text text-anchor="start" x="8" y="-591.2" font-family="Helvetica,sans-Serif" font-size="11.00" fill="#4b5563">signal names from ip/peripherals/intc/src/intc_top.sv; clocks / resets (not drawn): aclk, aresetn</text>
<text text-anchor="start" x="8" y="-580.2" font-family="Helvetica,sans-Serif" font-size="11.00" fill="#4b5563">box with double border = register (always_ff), ellipse = combinational (assign / always_comb), yellow = sub&#45;module instance; clusters = the always block that drives them</text>
<text text-anchor="start" x="8" y="-569.2" font-family="Helvetica,sans-Serif" font-size="11.00" fill="#4b5563">thick teal line = protocol bus (AXI4&#45;Stream / AXI4 / AXI4&#45;Lite, ready and responses implied); a bus signal also used elsewhere is drawn separately</text>
<g id="clust1" class="cluster">
<title>cluster_in</title>
<path fill="white" stroke="#9ca3af" stroke-dasharray="5,2" d="M20,-8C20,-8 91,-8 91,-8 97,-8 103,-14 103,-20 103,-20 103,-188 103,-188 103,-194 97,-200 91,-200 91,-200 20,-200 20,-200 14,-200 8,-194 8,-188 8,-188 8,-20 8,-20 8,-14 14,-8 20,-8"/>
<text text-anchor="middle" x="29.5" y="-188" font-family="Helvetica,sans-Serif" font-size="10.00" fill="#4b5563">inputs</text>
</g>
<g id="clust3" class="cluster">
<title>cluster_out</title>
<path fill="white" stroke="#9ca3af" stroke-dasharray="5,2" d="M1969.36,-67C1969.36,-67 2042.36,-67 2042.36,-67 2048.36,-67 2054.36,-73 2054.36,-79 2054.36,-79 2054.36,-237 2054.36,-237 2054.36,-243 2048.36,-249 2042.36,-249 2042.36,-249 1969.36,-249 1969.36,-249 1963.36,-249 1957.36,-243 1957.36,-237 1957.36,-237 1957.36,-79 1957.36,-79 1957.36,-73 1963.36,-67 1969.36,-67"/>
<text text-anchor="middle" x="1981.86" y="-237" font-family="Helvetica,sans-Serif" font-size="10.00" fill="#4b5563">outputs</text>
</g>
<g id="clust5" class="cluster">
<title>cluster_b0</title>
<path fill="white" stroke="#c4b5fd" d="M2136.73,-53C2136.73,-53 2201.73,-53 2201.73,-53 2207.73,-53 2213.73,-59 2213.73,-65 2213.73,-65 2213.73,-176 2213.73,-176 2213.73,-182 2207.73,-188 2201.73,-188 2201.73,-188 2136.73,-188 2136.73,-188 2130.73,-188 2124.73,-182 2124.73,-176 2124.73,-176 2124.73,-65 2124.73,-65 2124.73,-59 2130.73,-53 2136.73,-53"/>
<text text-anchor="middle" x="2167.73" y="-176.8" font-family="Helvetica,sans-Serif" font-size="9.00" fill="#6d28d9">always @ line 52</text>
</g>
<g id="clust6" class="cluster">
<title>cluster_b1</title>
<path fill="white" stroke="#c4b5fd" d="M166,-271C166,-271 707,-271 707,-271 713,-271 719,-277 719,-283 719,-283 719,-337 719,-337 719,-343 713,-349 707,-349 707,-349 166,-349 166,-349 160,-349 154,-343 154,-337 154,-337 154,-283 154,-283 154,-277 160,-271 166,-271"/>
<text text-anchor="middle" x="202" y="-337.8" font-family="Helvetica,sans-Serif" font-size="9.00" fill="#6d28d9">always_ff @ line 79</text>
</g>
<g id="clust7" class="cluster">
<title>cluster_b2</title>
<path fill="white" stroke="#c4b5fd" d="M1028.72,-316C1028.72,-316 1107.72,-316 1107.72,-316 1113.72,-316 1119.72,-322 1119.72,-328 1119.72,-328 1119.72,-400 1119.72,-400 1119.72,-406 1113.72,-412 1107.72,-412 1107.72,-412 1028.72,-412 1028.72,-412 1022.72,-412 1016.72,-406 1016.72,-400 1016.72,-400 1016.72,-328 1016.72,-328 1016.72,-322 1022.72,-316 1028.72,-316"/>
<text text-anchor="middle" x="1064.72" y="-400.8" font-family="Helvetica,sans-Serif" font-size="9.00" fill="#6d28d9">always_ff @ line 87</text>
</g>
<g id="clust8" class="cluster">
<title>cluster_b3</title>
<path fill="white" stroke="#c4b5fd" d="M1540.17,-278C1540.17,-278 1612.17,-278 1612.17,-278 1618.17,-278 1624.17,-284 1624.17,-290 1624.17,-290 1624.17,-401 1624.17,-401 1624.17,-407 1618.17,-413 1612.17,-413 1612.17,-413 1540.17,-413 1540.17,-413 1534.17,-413 1528.17,-407 1528.17,-401 1528.17,-401 1528.17,-290 1528.17,-290 1528.17,-284 1534.17,-278 1540.17,-278"/>
<text text-anchor="middle" x="1576.17" y="-401.8" font-family="Helvetica,sans-Serif" font-size="9.00" fill="#6d28d9">always_ff @ line 98</text>
</g>
<!-- in:irq_i -->
<g id="node1" class="node">
<title>in:irq_i</title>
<path fill="#dcfce7" stroke="#15803d" d="M83,-173C83,-173 28,-173 28,-173 22,-173 16,-167 16,-161 16,-161 16,-149 16,-149 16,-143 22,-137 28,-137 28,-137 83,-137 83,-137 89,-137 95,-143 95,-149 95,-149 95,-161 95,-161 95,-167 89,-173 83,-173"/>
<text text-anchor="middle" x="55.5" y="-157.8" font-family="Helvetica,sans-Serif" font-size="9.00">irq_i</text>
<text text-anchor="middle" x="55.5" y="-147.8" font-family="Helvetica,sans-Serif" font-size="9.00">[NUM_IRQ&#45;1:0]</text>
</g>
<!-- sig:s1 -->
<g id="node9" class="node">
<title>sig:s1</title>
<polygon fill="#ede9fe" stroke="#7c3aed" points="245,-319 166,-319 166,-283 245,-283 245,-319"/>
<polygon fill="none" stroke="#7c3aed" points="249,-323 162,-323 162,-279 249,-279 249,-323"/>
<text text-anchor="middle" x="205.5" y="-303.8" font-family="Helvetica,sans-Serif" font-size="9.00">s1</text>
<text text-anchor="middle" x="205.5" y="-293.8" font-family="Helvetica,sans-Serif" font-size="9.00">[NUM_IRQ&#45;1:0]</text>
</g>
<!-- in:irq_i&#45;&gt;sig:s1 -->
<g id="edge1" class="edge">
<title>in:irq_i&#45;&gt;sig:s1</title>
<path fill="none" stroke="#4b5563" stroke-width="0.9" d="M74.95,-173.2C100.76,-198.66 147.84,-245.11 177.58,-274.44"/>
<polygon fill="#4b5563" stroke="#4b5563" stroke-width="0.9" points="176.45,-276.28 182.19,-278.99 179.4,-273.29 176.45,-276.28"/>
</g>
<!-- in:s_axil_* -->
<g id="node2" class="node">
<title>in:s_axil_*</title>
<path fill="#dcfce7" stroke="#15803d" d="M82,-124C82,-124 29,-124 29,-124 23,-124 17,-118 17,-112 17,-112 17,-28 17,-28 17,-22 23,-16 29,-16 29,-16 82,-16 82,-16 88,-16 94,-22 94,-28 94,-28 94,-112 94,-112 94,-118 88,-124 82,-124"/>
<text text-anchor="middle" x="55.5" y="-112.8" font-family="Helvetica,sans-Serif" font-size="9.00">s_axil_*</text>
<text text-anchor="middle" x="55.5" y="-102.8" font-family="Helvetica,sans-Serif" font-size="9.00">s_axil_awaddr</text>
<text text-anchor="middle" x="55.5" y="-92.8" font-family="Helvetica,sans-Serif" font-size="9.00">s_axil_awvalid</text>
<text text-anchor="middle" x="55.5" y="-82.8" font-family="Helvetica,sans-Serif" font-size="9.00">s_axil_wdata</text>
<text text-anchor="middle" x="55.5" y="-72.8" font-family="Helvetica,sans-Serif" font-size="9.00">s_axil_wstrb</text>
<text text-anchor="middle" x="55.5" y="-62.8" font-family="Helvetica,sans-Serif" font-size="9.00">s_axil_wvalid</text>
<text text-anchor="middle" x="55.5" y="-52.8" font-family="Helvetica,sans-Serif" font-size="9.00">s_axil_bready</text>
<text text-anchor="middle" x="55.5" y="-42.8" font-family="Helvetica,sans-Serif" font-size="9.00">s_axil_araddr</text>
<text text-anchor="middle" x="55.5" y="-32.8" font-family="Helvetica,sans-Serif" font-size="9.00">s_axil_arvalid</text>
<text text-anchor="middle" x="55.5" y="-22.8" font-family="Helvetica,sans-Serif" font-size="9.00">s_axil_rready</text>
</g>
<!-- sig:ip_chk_b_q -->
<g id="node5" class="node">
<title>sig:ip_chk_b_q</title>
<polygon fill="#ede9fe" stroke="#7c3aed" points="2201.73,-158 2136.73,-158 2136.73,-122 2201.73,-122 2201.73,-158"/>
<polygon fill="none" stroke="#7c3aed" points="2205.73,-162 2132.73,-162 2132.73,-118 2205.73,-118 2205.73,-162"/>
<text text-anchor="middle" x="2169.23" y="-137.8" font-family="Helvetica,sans-Serif" font-size="9.00">ip_chk_b_q</text>
</g>
<!-- in:s_axil_*&#45;&gt;sig:ip_chk_b_q -->
<g id="edge2" class="edge">
<title>in:s_axil_*&#45;&gt;sig:ip_chk_b_q</title>
<path fill="none" stroke="#4b5563" stroke-width="0.9" d="M94.06,-62.89C123.89,-57.85 166.71,-52 204.5,-52 204.5,-52 204.5,-52 2006.86,-52 2028.64,-52 2034.85,-54.33 2054.36,-64 2084.4,-78.89 2085.31,-92.64 2113.36,-111 2117.71,-113.84 2122.35,-116.64 2127.04,-119.31"/>
<polygon fill="#4b5563" stroke="#4b5563" stroke-width="0.9" points="2126.28,-121.29 2132.55,-122.38 2128.33,-117.62 2126.28,-121.29"/>
</g>
<!-- sig:ip_chk_r_q -->
<g id="node6" class="node">
<title>sig:ip_chk_r_q</title>
<polygon fill="#ede9fe" stroke="#7c3aed" points="2200.23,-101 2138.23,-101 2138.23,-65 2200.23,-65 2200.23,-101"/>
<polygon fill="none" stroke="#7c3aed" points="2204.23,-105 2134.23,-105 2134.23,-61 2204.23,-61 2204.23,-105"/>
<text text-anchor="middle" x="2169.23" y="-80.8" font-family="Helvetica,sans-Serif" font-size="9.00">ip_chk_r_q</text>
</g>
<!-- in:s_axil_*&#45;&gt;sig:ip_chk_r_q -->
<g id="edge3" class="edge">
<title>in:s_axil_*&#45;&gt;sig:ip_chk_r_q</title>
<path fill="none" stroke="#4b5563" stroke-width="0.9" d="M94.19,-51.83C123.54,-39.34 165.69,-25 204.5,-25 204.5,-25 204.5,-25 2006.86,-25 2050.34,-25 2096.73,-43.88 2128.56,-60.09"/>
<polygon fill="#4b5563" stroke="#4b5563" stroke-width="0.9" points="2127.64,-61.98 2133.93,-62.88 2129.57,-58.25 2127.64,-61.98"/>
</g>
<!-- inst:u_regs -->
<g id="node25" class="node">
<title>inst:u_regs</title>
<polygon fill="#fef9c3" stroke="#a16207" points="1898.36,-353 1829.36,-353 1829.36,-317 1898.36,-317 1898.36,-353"/>
<text text-anchor="start" x="1837.36" y="-337.8" font-family="Helvetica,sans-Serif" font-weight="bold" font-size="9.00">ip_axil_regs</text>
<text text-anchor="start" x="1849.36" y="-328.8" font-family="Helvetica,sans-Serif" font-size="9.00" fill="#4b5563">u_regs</text>
</g>
<!-- in:s_axil_*&#45;&gt;inst:u_regs -->
<g id="edge39" class="edge">
<title>in:s_axil_*&#45;&gt;inst:u_regs</title>
<path fill="none" stroke="#0f766e" stroke-width="3.2" d="M94.21,-100.54C122.73,-120.54 163.82,-143 204.5,-143 204.5,-143 204.5,-143 1723.77,-143 1805.84,-143 1844.45,-259.48 1857.51,-310.99"/>
<polygon fill="#0f766e" stroke="#0f766e" stroke-width="3.2" points="1855.5,-311.61 1858.98,-316.94 1859.58,-310.61 1855.5,-311.61"/>
<text text-anchor="middle" x="957.22" y="-155.8" font-family="Courier,monospace" font-size="9.00" fill="#0f766e">AXI4&#45;Lite</text>
<text text-anchor="middle" x="957.22" y="-145.8" font-family="Courier,monospace" font-size="9.00" fill="#0f766e">s_axil_* (17)</text>
</g>
<!-- out:irq_o -->
<g id="node3" class="node">
<title>out:irq_o</title>
<path fill="#dbeafe" stroke="#1d4ed8" d="M2020.86,-111C2020.86,-111 1990.86,-111 1990.86,-111 1984.86,-111 1978.86,-105 1978.86,-99 1978.86,-99 1978.86,-87 1978.86,-87 1978.86,-81 1984.86,-75 1990.86,-75 1990.86,-75 2020.86,-75 2020.86,-75 2026.86,-75 2032.86,-81 2032.86,-87 2032.86,-87 2032.86,-99 2032.86,-99 2032.86,-105 2026.86,-111 2020.86,-111"/>
<text text-anchor="middle" x="2005.86" y="-90.8" font-family="Helvetica,sans-Serif" font-size="9.00">irq_o</text>
</g>
<!-- out:s_axil_* -->
<g id="node4" class="node">
<title>out:s_axil_*</title>
<path fill="#dbeafe" stroke="#1d4ed8" d="M2034.36,-222C2034.36,-222 1977.36,-222 1977.36,-222 1971.36,-222 1965.36,-216 1965.36,-210 1965.36,-210 1965.36,-136 1965.36,-136 1965.36,-130 1971.36,-124 1977.36,-124 1977.36,-124 2034.36,-124 2034.36,-124 2040.36,-124 2046.36,-130 2046.36,-136 2046.36,-136 2046.36,-210 2046.36,-210 2046.36,-216 2040.36,-222 2034.36,-222"/>
<text text-anchor="middle" x="2005.86" y="-210.8" font-family="Helvetica,sans-Serif" font-size="9.00">s_axil_*</text>
<text text-anchor="middle" x="2005.86" y="-200.8" font-family="Helvetica,sans-Serif" font-size="9.00">s_axil_awready</text>
<text text-anchor="middle" x="2005.86" y="-190.8" font-family="Helvetica,sans-Serif" font-size="9.00">s_axil_wready</text>
<text text-anchor="middle" x="2005.86" y="-180.8" font-family="Helvetica,sans-Serif" font-size="9.00">s_axil_bresp</text>
<text text-anchor="middle" x="2005.86" y="-170.8" font-family="Helvetica,sans-Serif" font-size="9.00">s_axil_bvalid</text>
<text text-anchor="middle" x="2005.86" y="-160.8" font-family="Helvetica,sans-Serif" font-size="9.00">s_axil_arready</text>
<text text-anchor="middle" x="2005.86" y="-150.8" font-family="Helvetica,sans-Serif" font-size="9.00">s_axil_rdata</text>
<text text-anchor="middle" x="2005.86" y="-140.8" font-family="Helvetica,sans-Serif" font-size="9.00">s_axil_rresp</text>
<text text-anchor="middle" x="2005.86" y="-130.8" font-family="Helvetica,sans-Serif" font-size="9.00">s_axil_rvalid</text>
</g>
<!-- out:s_axil_*&#45;&gt;sig:ip_chk_b_q -->
<g id="edge8" class="edge">
<title>out:s_axil_*&#45;&gt;sig:ip_chk_b_q</title>
<path fill="none" stroke="#4b5563" stroke-width="0.9" d="M2046.75,-164.84C2071.01,-159.88 2101.96,-153.55 2126.54,-148.53"/>
<polygon fill="#4b5563" stroke="#4b5563" stroke-width="0.9" points="2127.19,-150.54 2132.64,-147.28 2126.34,-146.42 2127.19,-150.54"/>
</g>
<!-- out:s_axil_*&#45;&gt;sig:ip_chk_r_q -->
<g id="edge9" class="edge">
<title>out:s_axil_*&#45;&gt;sig:ip_chk_r_q</title>
<path fill="none" stroke="#4b5563" stroke-width="0.9" d="M2046.52,-149.21C2066.43,-137.45 2091.02,-123.2 2113.36,-111 2118.26,-108.33 2123.44,-105.58 2128.58,-102.91"/>
<polygon fill="#4b5563" stroke="#4b5563" stroke-width="0.9" points="2129.76,-104.66 2134.12,-100.04 2127.83,-100.93 2129.76,-104.66"/>
</g>
<!-- sig:lvl -->
<g id="node7" class="node">
<title>sig:lvl</title>
<polygon fill="#ede9fe" stroke="#7c3aed" points="553,-319 474,-319 474,-283 553,-283 553,-319"/>
<polygon fill="none" stroke="#7c3aed" points="557,-323 470,-323 470,-279 557,-279 557,-323"/>
<text text-anchor="middle" x="513.5" y="-303.8" font-family="Helvetica,sans-Serif" font-size="9.00">lvl</text>
<text text-anchor="middle" x="513.5" y="-293.8" font-family="Helvetica,sans-Serif" font-size="9.00">[NUM_IRQ&#45;1:0]</text>
</g>
<!-- sig:prev -->
<g id="node8" class="node">
<title>sig:prev</title>
<polygon fill="#ede9fe" stroke="#7c3aed" points="707,-319 628,-319 628,-283 707,-283 707,-319"/>
<polygon fill="none" stroke="#7c3aed" points="711,-323 624,-323 624,-279 711,-279 711,-323"/>
<text text-anchor="middle" x="667.5" y="-303.8" font-family="Helvetica,sans-Serif" font-size="9.00">prev</text>
<text text-anchor="middle" x="667.5" y="-293.8" font-family="Helvetica,sans-Serif" font-size="9.00">[NUM_IRQ&#45;1:0]</text>
</g>
<!-- sig:lvl&#45;&gt;sig:prev -->
<g id="edge14" class="edge">
<title>sig:lvl&#45;&gt;sig:prev</title>
<path fill="none" stroke="#4b5563" stroke-width="0.9" d="M557.24,-301C576.02,-301 598.18,-301 617.61,-301"/>
<polygon fill="#4b5563" stroke="#4b5563" stroke-width="0.9" points="617.81,-303.1 623.81,-301 617.81,-298.9 617.81,-303.1"/>
</g>
<!-- sig:pending -->
<g id="node17" class="node">
<title>sig:pending</title>
<ellipse fill="#f3f4f6" stroke="#6b7280" cx="1234.58" cy="-346" rx="55.72" ry="19.6"/>
<text text-anchor="middle" x="1234.58" y="-348.8" font-family="Helvetica,sans-Serif" font-size="9.00">pending</text>
<text text-anchor="middle" x="1234.58" y="-338.8" font-family="Helvetica,sans-Serif" font-size="9.00">[NUM_IRQ&#45;1:0]</text>
</g>
<!-- sig:lvl&#45;&gt;sig:pending -->
<g id="edge13" class="edge">
<title>sig:lvl&#45;&gt;sig:pending</title>
<path fill="none" stroke="#4b5563" stroke-width="0.9" d="M557.21,-282.58C587.2,-271.29 628.58,-259 666.5,-259 666.5,-259 666.5,-259 1069.22,-259 1124.39,-259 1179.13,-297.75 1209.44,-323.53"/>
<polygon fill="#4b5563" stroke="#4b5563" stroke-width="0.9" points="1208.18,-325.22 1214.09,-327.55 1210.93,-322.04 1208.18,-325.22"/>
</g>
<!-- sig:rise -->
<g id="node21" class="node">
<title>sig:rise</title>
<ellipse fill="#f3f4f6" stroke="#6b7280" cx="833.86" cy="-343" rx="55.72" ry="19.6"/>
<text text-anchor="middle" x="833.86" y="-345.8" font-family="Helvetica,sans-Serif" font-size="9.00">rise</text>
<text text-anchor="middle" x="833.86" y="-335.8" font-family="Helvetica,sans-Serif" font-size="9.00">[NUM_IRQ&#45;1:0]</text>
</g>
<!-- sig:lvl&#45;&gt;sig:rise -->
<g id="edge15" class="edge">
<title>sig:lvl&#45;&gt;sig:rise</title>
<path fill="none" stroke="#4b5563" stroke-width="0.9" d="M557.24,-314.41C577.31,-320.17 601.68,-326.39 624,-330 673.39,-338 730.09,-341.15 771.94,-342.36"/>
<polygon fill="#4b5563" stroke="#4b5563" stroke-width="0.9" points="771.95,-344.46 778,-342.53 772.06,-340.26 771.95,-344.46"/>
</g>
<!-- sig:prev&#45;&gt;sig:rise -->
<g id="edge24" class="edge">
<title>sig:prev&#45;&gt;sig:rise</title>
<path fill="none" stroke="#4b5563" stroke-width="0.9" d="M711.25,-311.93C732.91,-317.46 759.35,-324.21 782.04,-330.01"/>
<polygon fill="#4b5563" stroke="#4b5563" stroke-width="0.9" points="781.69,-332.09 788.02,-331.54 782.73,-328.02 781.69,-332.09"/>
</g>
<!-- sig:s2 -->
<g id="node10" class="node">
<title>sig:s2</title>
<polygon fill="#ede9fe" stroke="#7c3aed" points="399,-319 320,-319 320,-283 399,-283 399,-319"/>
<polygon fill="none" stroke="#7c3aed" points="403,-323 316,-323 316,-279 403,-279 403,-323"/>
<text text-anchor="middle" x="359.5" y="-303.8" font-family="Helvetica,sans-Serif" font-size="9.00">s2</text>
<text text-anchor="middle" x="359.5" y="-293.8" font-family="Helvetica,sans-Serif" font-size="9.00">[NUM_IRQ&#45;1:0]</text>
</g>
<!-- sig:s1&#45;&gt;sig:s2 -->
<g id="edge31" class="edge">
<title>sig:s1&#45;&gt;sig:s2</title>
<path fill="none" stroke="#4b5563" stroke-width="0.9" d="M249.24,-301C268.02,-301 290.18,-301 309.61,-301"/>
<polygon fill="#4b5563" stroke="#4b5563" stroke-width="0.9" points="309.81,-303.1 315.81,-301 309.81,-298.9 309.81,-303.1"/>
</g>
<!-- sig:s2&#45;&gt;sig:lvl -->
<g id="edge32" class="edge">
<title>sig:s2&#45;&gt;sig:lvl</title>
<path fill="none" stroke="#4b5563" stroke-width="0.9" d="M403.24,-301C422.02,-301 444.18,-301 463.61,-301"/>
<polygon fill="#4b5563" stroke="#4b5563" stroke-width="0.9" points="463.81,-303.1 469.81,-301 463.81,-298.9 463.81,-303.1"/>
</g>
<!-- sig:pend_edge -->
<g id="node11" class="node">
<title>sig:pend_edge</title>
<polygon fill="#ede9fe" stroke="#7c3aed" points="1107.72,-364 1028.72,-364 1028.72,-328 1107.72,-328 1107.72,-364"/>
<polygon fill="none" stroke="#7c3aed" points="1111.72,-368 1024.72,-368 1024.72,-324 1111.72,-324 1111.72,-368"/>
<text text-anchor="middle" x="1068.22" y="-348.8" font-family="Helvetica,sans-Serif" font-size="9.00">pend_edge</text>
<text text-anchor="middle" x="1068.22" y="-338.8" font-family="Helvetica,sans-Serif" font-size="9.00">[NUM_IRQ&#45;1:0]</text>
</g>
<!-- sig:pend_edge&#45;&gt;sig:pend_edge -->
<g id="edge19" class="edge">
<title>sig:pend_edge&#45;&gt;sig:pend_edge</title>
<path fill="none" stroke="#4b5563" stroke-width="0.9" d="M1053.98,-368.22C1054.12,-375.35 1058.87,-381 1068.22,-381 1074.8,-381 1079.1,-378.21 1081.12,-374.07"/>
<polygon fill="#4b5563" stroke="#4b5563" stroke-width="0.9" points="1083.17,-374.53 1082.47,-368.22 1079.08,-373.59 1083.17,-374.53"/>
</g>
<!-- sig:pend_edge&#45;&gt;sig:pending -->
<g id="edge20" class="edge">
<title>sig:pend_edge&#45;&gt;sig:pending</title>
<path fill="none" stroke="#4b5563" stroke-width="0.9" d="M1111.98,-346C1130.42,-346 1152.34,-346 1172.46,-346"/>
<polygon fill="#4b5563" stroke="#4b5563" stroke-width="0.9" points="1172.64,-348.1 1178.64,-346 1172.64,-343.9 1172.64,-348.1"/>
</g>
<!-- sig:vec -->
<g id="node12" class="node">
<title>sig:vec</title>
<polygon fill="#ede9fe" stroke="#7c3aed" points="1603.17,-383 1549.17,-383 1549.17,-347 1603.17,-347 1603.17,-383"/>
<polygon fill="none" stroke="#7c3aed" points="1607.17,-387 1545.17,-387 1545.17,-343 1607.17,-343 1607.17,-387"/>
<text text-anchor="middle" x="1576.17" y="-367.8" font-family="Helvetica,sans-Serif" font-size="9.00">vec</text>
<text text-anchor="middle" x="1576.17" y="-357.8" font-family="Helvetica,sans-Serif" font-size="9.00">[4:0]</text>
</g>
<!-- sig:rd -->
<g id="node19" class="node">
<title>sig:rd</title>
<ellipse fill="#f3f4f6" stroke="#6b7280" cx="1722.77" cy="-361" rx="39.7" ry="19.6"/>
<text text-anchor="middle" x="1722.77" y="-363.8" font-family="Helvetica,sans-Serif" font-size="9.00">rd</text>
<text text-anchor="middle" x="1722.77" y="-353.8" font-family="Helvetica,sans-Serif" font-size="9.00">[7*32&#45;1:0]</text>
</g>
<!-- sig:vec&#45;&gt;sig:rd -->
<g id="edge33" class="edge">
<title>sig:vec&#45;&gt;sig:rd</title>
<path fill="none" stroke="#4b5563" stroke-width="0.9" d="M1607.48,-364.16C1627.54,-363.61 1654.2,-362.87 1676.72,-362.25"/>
<polygon fill="#4b5563" stroke="#4b5563" stroke-width="0.9" points="1677.02,-364.34 1682.96,-362.07 1676.9,-360.14 1677.02,-364.34"/>
</g>
<!-- sig:vec_v -->
<g id="node13" class="node">
<title>sig:vec_v</title>
<polygon fill="#ede9fe" stroke="#7c3aed" points="1603.17,-326 1549.17,-326 1549.17,-290 1603.17,-290 1603.17,-326"/>
<polygon fill="none" stroke="#7c3aed" points="1607.17,-330 1545.17,-330 1545.17,-286 1607.17,-286 1607.17,-330"/>
<text text-anchor="middle" x="1576.17" y="-305.8" font-family="Helvetica,sans-Serif" font-size="9.00">vec_v</text>
</g>
<!-- sig:vec_v&#45;&gt;out:irq_o -->
<g id="edge34" class="edge">
<title>sig:vec_v&#45;&gt;out:irq_o</title>
<path fill="none" stroke="#4b5563" stroke-width="0.9" d="M1607.24,-292.88C1685.23,-253.68 1893.44,-149.01 1973.18,-108.93"/>
<polygon fill="#4b5563" stroke="#4b5563" stroke-width="0.9" points="1974.28,-110.72 1978.7,-106.15 1972.4,-106.97 1974.28,-110.72"/>
</g>
<!-- sig:vec_v&#45;&gt;sig:rd -->
<g id="edge35" class="edge">
<title>sig:vec_v&#45;&gt;sig:rd</title>
<path fill="none" stroke="#4b5563" stroke-width="0.9" d="M1607.48,-319.11C1629.85,-327.31 1660.42,-338.52 1684.32,-347.28"/>
<polygon fill="#4b5563" stroke="#4b5563" stroke-width="0.9" points="1683.89,-349.35 1690.24,-349.45 1685.33,-345.41 1683.89,-349.35"/>
</g>
<!-- sig:edg -->
<g id="node14" class="node">
<title>sig:edg</title>
<ellipse fill="#f3f4f6" stroke="#6b7280" cx="2169.23" cy="-482" rx="55.72" ry="19.6"/>
<text text-anchor="middle" x="2169.23" y="-484.8" font-family="Helvetica,sans-Serif" font-size="9.00">edg</text>
<text text-anchor="middle" x="2169.23" y="-474.8" font-family="Helvetica,sans-Serif" font-size="9.00">[NUM_IRQ&#45;1:0]</text>
</g>
<!-- sig:edg&#45;&gt;sig:pend_edge -->
<g id="edge10" class="edge">
<title>sig:edg&#45;&gt;sig:pend_edge</title>
<path fill="none" stroke="#4b5563" stroke-width="0.9" d="M2146.92,-500.55C2117.53,-524.19 2061.9,-562 2006.86,-562 1233.58,-562 1233.58,-562 1233.58,-562 1140.38,-562 1093.08,-433.06 1076.39,-374.42"/>
<polygon fill="#4b5563" stroke="#4b5563" stroke-width="0.9" points="1078.32,-373.52 1074.69,-368.3 1074.28,-374.65 1078.32,-373.52"/>
</g>
<!-- sig:edg&#45;&gt;sig:pending -->
<g id="edge11" class="edge">
<title>sig:edg&#45;&gt;sig:pending</title>
<path fill="none" stroke="#4b5563" stroke-width="0.9" d="M2113.33,-482C2082.12,-482 2042.3,-482 2006.86,-482 1412.31,-482 1412.31,-482 1412.31,-482 1340.06,-482 1279.23,-409.73 1251.57,-370.55"/>
<polygon fill="#4b5563" stroke="#4b5563" stroke-width="0.9" points="1253.2,-369.21 1248.05,-365.49 1249.75,-371.61 1253.2,-369.21"/>
</g>
<!-- sig:en -->
<g id="node15" class="node">
<title>sig:en</title>
<ellipse fill="#f3f4f6" stroke="#6b7280" cx="2169.23" cy="-411" rx="55.72" ry="19.6"/>
<text text-anchor="middle" x="2169.23" y="-413.8" font-family="Helvetica,sans-Serif" font-size="9.00">en</text>
<text text-anchor="middle" x="2169.23" y="-403.8" font-family="Helvetica,sans-Serif" font-size="9.00">[NUM_IRQ&#45;1:0]</text>
</g>
<!-- sig:masked -->
<g id="node16" class="node">
<title>sig:masked</title>
<ellipse fill="#f3f4f6" stroke="#6b7280" cx="1413.31" cy="-365" rx="55.72" ry="19.6"/>
<text text-anchor="middle" x="1413.31" y="-367.8" font-family="Helvetica,sans-Serif" font-size="9.00">masked</text>
<text text-anchor="middle" x="1413.31" y="-357.8" font-family="Helvetica,sans-Serif" font-size="9.00">[NUM_IRQ&#45;1:0]</text>
</g>
<!-- sig:en&#45;&gt;sig:masked -->
<g id="edge12" class="edge">
<title>sig:en&#45;&gt;sig:masked</title>
<path fill="none" stroke="#4b5563" stroke-width="0.9" d="M2119,-419.89C2010.81,-437.79 1744.7,-472.92 1528.17,-429 1495.87,-422.45 1463.54,-402.71 1441.63,-386.86"/>
<polygon fill="#4b5563" stroke="#4b5563" stroke-width="0.9" points="1442.64,-385 1436.57,-383.14 1440.15,-388.38 1442.64,-385"/>
</g>
<!-- sig:masked&#45;&gt;sig:vec -->
<g id="edge17" class="edge">
<title>sig:masked&#45;&gt;sig:vec</title>
<path fill="none" stroke="#4b5563" stroke-width="0.9" d="M1469.22,-365C1492.15,-365 1518.16,-365 1538.68,-365"/>
<polygon fill="#4b5563" stroke="#4b5563" stroke-width="0.9" points="1538.86,-367.1 1544.86,-365 1538.86,-362.9 1538.86,-367.1"/>
</g>
<!-- sig:masked&#45;&gt;sig:vec_v -->
<g id="edge18" class="edge">
<title>sig:masked&#45;&gt;sig:vec_v</title>
<path fill="none" stroke="#4b5563" stroke-width="0.9" d="M1453.66,-351.06C1479.75,-341.81 1513.72,-329.77 1539.11,-320.78"/>
<polygon fill="#4b5563" stroke="#4b5563" stroke-width="0.9" points="1540.09,-322.66 1545.05,-318.67 1538.69,-318.7 1540.09,-322.66"/>
</g>
<!-- sig:masked&#45;&gt;sig:rd -->
<g id="edge16" class="edge">
<title>sig:masked&#45;&gt;sig:rd</title>
<path fill="none" stroke="#4b5563" stroke-width="0.9" d="M1443.1,-382C1465.45,-394.16 1497.67,-409.48 1528.17,-416 1569.89,-424.92 1582.9,-426.83 1624.17,-416 1650.13,-409.19 1676.47,-393.73 1695.23,-380.94"/>
<polygon fill="#4b5563" stroke="#4b5563" stroke-width="0.9" points="1696.58,-382.55 1700.32,-377.41 1694.19,-379.1 1696.58,-382.55"/>
</g>
<!-- sig:pending&#45;&gt;sig:masked -->
<g id="edge21" class="edge">
<title>sig:pending&#45;&gt;sig:masked</title>
<path fill="none" stroke="#4b5563" stroke-width="0.9" d="M1288.13,-351.65C1308.69,-353.86 1332.36,-356.4 1353.48,-358.68"/>
<polygon fill="#4b5563" stroke="#4b5563" stroke-width="0.9" points="1353.47,-360.79 1359.66,-359.34 1353.92,-356.61 1353.47,-360.79"/>
</g>
<!-- sig:pending&#45;&gt;sig:rd -->
<g id="edge22" class="edge">
<title>sig:pending&#45;&gt;sig:rd</title>
<path fill="none" stroke="#4b5563" stroke-width="0.9" d="M1266.32,-329.58C1333.33,-296.08 1496.82,-226.9 1624.17,-275 1657.22,-287.49 1686.33,-316.83 1703.97,-337.77"/>
<polygon fill="#4b5563" stroke="#4b5563" stroke-width="0.9" points="1702.54,-339.34 1707.98,-342.63 1705.78,-336.66 1702.54,-339.34"/>
</g>
<!-- sig:pol -->
<g id="node18" class="node">
<title>sig:pol</title>
<ellipse fill="#f3f4f6" stroke="#6b7280" cx="2169.23" cy="-348" rx="55.72" ry="19.6"/>
<text text-anchor="middle" x="2169.23" y="-350.8" font-family="Helvetica,sans-Serif" font-size="9.00">pol</text>
<text text-anchor="middle" x="2169.23" y="-340.8" font-family="Helvetica,sans-Serif" font-size="9.00">[NUM_IRQ&#45;1:0]</text>
</g>
<!-- sig:pol&#45;&gt;sig:lvl -->
<g id="edge23" class="edge">
<title>sig:pol&#45;&gt;sig:lvl</title>
<path fill="none" stroke="#4b5563" stroke-width="0.9" d="M2134.04,-332.56C2111.79,-323.15 2081.88,-311.68 2054.36,-305 1892.98,-265.81 1847.82,-283.7 1683.17,-262 1523.39,-240.95 1485.61,-209 1324.45,-209 666.5,-209 666.5,-209 666.5,-209 615.55,-209 567.08,-247.29 539.09,-274.47"/>
<polygon fill="#4b5563" stroke="#4b5563" stroke-width="0.9" points="537.57,-273.02 534.77,-278.73 540.52,-276.01 537.57,-273.02"/>
</g>
<!-- sig:rd&#45;&gt;inst:u_regs -->
<g id="edge25" class="edge">
<title>sig:rd&#45;&gt;inst:u_regs</title>
<path fill="none" stroke="#4b5563" stroke-width="0.9" d="M1760.31,-354.17C1779.57,-350.57 1803.22,-346.15 1822.96,-342.46"/>
<polygon fill="#4b5563" stroke="#4b5563" stroke-width="0.9" points="1823.44,-344.51 1828.95,-341.34 1822.66,-340.38 1823.44,-344.51"/>
</g>
<!-- sig:regs -->
<g id="node20" class="node">
<title>sig:regs</title>
<ellipse fill="#fff7ed" stroke="#c2410c" cx="2005.86" cy="-384" rx="39.7" ry="19.6"/>
<text text-anchor="middle" x="2005.86" y="-386.8" font-family="Helvetica,sans-Serif" font-size="9.00">regs</text>
<text text-anchor="middle" x="2005.86" y="-376.8" font-family="Helvetica,sans-Serif" font-size="9.00">[7*32&#45;1:0]</text>
</g>
<!-- sig:regs&#45;&gt;sig:edg -->
<g id="edge26" class="edge">
<title>sig:regs&#45;&gt;sig:edg</title>
<path fill="none" stroke="#4b5563" stroke-width="0.9" d="M2031.72,-399.1C2059.39,-415.9 2104.22,-443.13 2134.9,-461.76"/>
<polygon fill="#4b5563" stroke="#4b5563" stroke-width="0.9" points="2133.86,-463.59 2140.08,-464.91 2136.04,-460 2133.86,-463.59"/>
</g>
<!-- sig:regs&#45;&gt;sig:en -->
<g id="edge27" class="edge">
<title>sig:regs&#45;&gt;sig:en</title>
<path fill="none" stroke="#4b5563" stroke-width="0.9" d="M2043.88,-390.19C2064.13,-393.58 2089.62,-397.85 2112.24,-401.63"/>
<polygon fill="#4b5563" stroke="#4b5563" stroke-width="0.9" points="2111.97,-403.72 2118.23,-402.63 2112.66,-399.57 2111.97,-403.72"/>
</g>
<!-- sig:regs&#45;&gt;sig:pol -->
<g id="edge28" class="edge">
<title>sig:regs&#45;&gt;sig:pol</title>
<path fill="none" stroke="#4b5563" stroke-width="0.9" d="M2042.28,-376.1C2063.74,-371.31 2091.53,-365.11 2115.54,-359.75"/>
<polygon fill="#4b5563" stroke="#4b5563" stroke-width="0.9" points="2116.16,-361.77 2121.56,-358.41 2115.25,-357.67 2116.16,-361.77"/>
</g>
<!-- sig:regs&#45;&gt;sig:rd -->
<g id="edge29" class="edge">
<title>sig:regs&#45;&gt;sig:rd</title>
<path fill="none" stroke="#4b5563" stroke-width="0.9" d="M1966.75,-380.88C1915.04,-376.65 1822.87,-369.11 1768.13,-364.63"/>
<polygon fill="#4b5563" stroke="#4b5563" stroke-width="0.9" points="1768.12,-362.52 1761.97,-364.13 1767.78,-366.71 1768.12,-362.52"/>
</g>
<!-- sig:rise&#45;&gt;sig:pend_edge -->
<g id="edge30" class="edge">
<title>sig:rise&#45;&gt;sig:pend_edge</title>
<path fill="none" stroke="#4b5563" stroke-width="0.9" d="M889.93,-343.71C928.88,-344.21 980.63,-344.88 1018.16,-345.37"/>
<polygon fill="#4b5563" stroke="#4b5563" stroke-width="0.9" points="1018.5,-347.47 1024.53,-345.45 1018.56,-343.27 1018.5,-347.47"/>
</g>
<!-- sig:wd -->
<g id="node22" class="node">
<title>sig:wd</title>
<ellipse fill="#f3f4f6" stroke="#6b7280" cx="2169.23" cy="-274" rx="55.72" ry="19.6"/>
<text text-anchor="middle" x="2169.23" y="-276.8" font-family="Helvetica,sans-Serif" font-size="9.00">wd</text>
<text text-anchor="middle" x="2169.23" y="-266.8" font-family="Helvetica,sans-Serif" font-size="9.00">[NUM_IRQ&#45;1:0]</text>
</g>
<!-- sig:wd&#45;&gt;sig:pend_edge -->
<g id="edge36" class="edge">
<title>sig:wd&#45;&gt;sig:pend_edge</title>
<path fill="none" stroke="#4b5563" stroke-width="0.9" d="M2114.08,-270.52C1957.11,-260.81 1503.68,-235.66 1357.45,-259 1270.87,-272.82 1174,-305.88 1117.5,-327.04"/>
<polygon fill="#4b5563" stroke="#4b5563" stroke-width="0.9" points="1116.7,-325.09 1111.83,-329.17 1118.18,-329.02 1116.7,-325.09"/>
</g>
<!-- sig:wr_data -->
<g id="node23" class="node">
<title>sig:wr_data</title>
<ellipse fill="#fff7ed" stroke="#c2410c" cx="2005.86" cy="-331" rx="35.21" ry="19.6"/>
<text text-anchor="middle" x="2005.86" y="-333.8" font-family="Helvetica,sans-Serif" font-size="9.00">wr_data</text>
<text text-anchor="middle" x="2005.86" y="-323.8" font-family="Helvetica,sans-Serif" font-size="9.00">[31:0]</text>
</g>
<!-- sig:wr_data&#45;&gt;sig:wd -->
<g id="edge37" class="edge">
<title>sig:wr_data&#45;&gt;sig:wd</title>
<path fill="none" stroke="#4b5563" stroke-width="0.9" d="M2036.09,-320.68C2060.34,-312.11 2095.23,-299.79 2123.07,-289.95"/>
<polygon fill="#4b5563" stroke="#4b5563" stroke-width="0.9" points="2123.94,-291.87 2128.9,-287.89 2122.54,-287.91 2123.94,-291.87"/>
</g>
<!-- sig:wr_pulse -->
<g id="node24" class="node">
<title>sig:wr_pulse</title>
<ellipse fill="#fff7ed" stroke="#c2410c" cx="2005.86" cy="-522" rx="38.37" ry="19.6"/>
<text text-anchor="middle" x="2005.86" y="-524.8" font-family="Helvetica,sans-Serif" font-size="9.00">wr_pulse</text>
<text text-anchor="middle" x="2005.86" y="-514.8" font-family="Helvetica,sans-Serif" font-size="9.00">[6:0]</text>
</g>
<!-- sig:wr_pulse&#45;&gt;sig:pend_edge -->
<g id="edge38" class="edge">
<title>sig:wr_pulse&#45;&gt;sig:pend_edge</title>
<path fill="none" stroke="#4b5563" stroke-width="0.9" d="M1967.43,-521.59C1939.23,-521.31 1899.62,-521 1864.86,-521 1233.58,-521 1233.58,-521 1233.58,-521 1153.88,-521 1101.54,-423.35 1080.16,-373.94"/>
<polygon fill="#4b5563" stroke="#4b5563" stroke-width="0.9" points="1081.98,-372.87 1077.7,-368.16 1078.12,-374.51 1081.98,-372.87"/>
</g>
<!-- inst:u_regs&#45;&gt;out:s_axil_* -->
<g id="edge4" class="edge">
<title>inst:u_regs&#45;&gt;out:s_axil_*</title>
<path fill="none" stroke="#4b5563" stroke-width="0.9" d="M1880.65,-316.73C1900.08,-294.25 1933.85,-255.17 1961.29,-223.43"/>
<polygon fill="#4b5563" stroke="#4b5563" stroke-width="0.9" points="1962.95,-224.71 1965.28,-218.8 1959.77,-221.97 1962.95,-224.71"/>
</g>
<!-- inst:u_regs&#45;&gt;sig:regs -->
<g id="edge5" class="edge">
<title>inst:u_regs&#45;&gt;sig:regs</title>
<path fill="none" stroke="#4b5563" stroke-width="0.9" d="M1898.4,-346.74C1919.1,-353.98 1945.71,-363.3 1967.15,-370.8"/>
<polygon fill="#4b5563" stroke="#4b5563" stroke-width="0.9" points="1966.69,-372.86 1973.05,-372.86 1968.08,-368.9 1966.69,-372.86"/>
</g>
<!-- inst:u_regs&#45;&gt;sig:wr_data -->
<g id="edge6" class="edge">
<title>inst:u_regs&#45;&gt;sig:wr_data</title>
<path fill="none" stroke="#4b5563" stroke-width="0.9" d="M1898.4,-334.04C1918.13,-333.48 1943.23,-332.76 1964.1,-332.16"/>
<polygon fill="#4b5563" stroke="#4b5563" stroke-width="0.9" points="1964.21,-334.26 1970.14,-331.99 1964.09,-330.06 1964.21,-334.26"/>
</g>
<!-- inst:u_regs&#45;&gt;sig:wr_pulse -->
<g id="edge7" class="edge">
<title>inst:u_regs&#45;&gt;sig:wr_pulse</title>
<path fill="none" stroke="#4b5563" stroke-width="0.9" d="M1878.54,-353.27C1904.16,-387.48 1959.31,-461.15 1987.5,-498.81"/>
<polygon fill="#4b5563" stroke="#4b5563" stroke-width="0.9" points="1985.85,-500.11 1991.13,-503.66 1989.22,-497.59 1985.85,-500.11"/>
</g>
</g>
</svg>
