<?xml version="1.0" encoding="UTF-8" standalone="no"?>
<!DOCTYPE svg PUBLIC "-//W3C//DTD SVG 1.1//EN"
 "http://www.w3.org/Graphics/SVG/1.1/DTD/svg11.dtd">
<!-- Generated by graphviz version 2.43.20190912.0211 (20190912.0211)
 -->
<!-- Title: pulse_sync_dataflow Pages: 1 -->
<svg width="998pt" height="327pt"
 viewBox="0.00 0.00 998.20 327.20" xmlns="http://www.w3.org/2000/svg" xmlns:xlink="http://www.w3.org/1999/xlink">
<g id="graph0" class="graph" transform="scale(1 1) rotate(0) translate(21.6 305.6)">
<title>pulse_sync_dataflow</title>
<polygon fill="white" stroke="transparent" points="-21.6,21.6 -21.6,-305.6 976.6,-305.6 976.6,21.6 -21.6,21.6"/>
<text text-anchor="start" x="8" y="-266.6" font-family="Helvetica,sans-Serif" font-weight="bold" font-size="18.00">pulse_sync</text>
<text text-anchor="start" x="106" y="-266.6" font-family="Helvetica,sans-Serif" font-size="18.00"> data flow (RTL level)</text>
<text text-anchor="start" x="8" y="-254.2" font-family="Helvetica,sans-Serif" font-size="11.00" fill="#4b5563">signal names from ip/cdc/pulse_sync/src/pulse_sync.sv; clocks / resets (not drawn): dst_clk, dst_rst_n, src_clk, src_rst_n</text>
<text text-anchor="start" x="8" y="-243.2" font-family="Helvetica,sans-Serif" font-size="11.00" fill="#4b5563">box with double border = register (always_ff), ellipse = combinational (assign / always_comb), yellow = sub&#45;module instance; clusters = the always block that drives them</text>
<text text-anchor="start" x="8" y="-232.2" font-family="Helvetica,sans-Serif" font-size="11.00" fill="#4b5563">thick teal line = protocol bus (AXI4&#45;Stream / AXI4 / AXI4&#45;Lite, ready and responses implied); a bus signal also used elsewhere is drawn separately</text>
<g id="clust1" class="cluster">
<title>cluster_in</title>
<path fill="white" stroke="#9ca3af" stroke-dasharray="5,2" d="M20,-126C20,-126 66,-126 66,-126 72,-126 78,-132 78,-138 78,-138 78,-185 78,-185 78,-191 72,-197 66,-197 66,-197 20,-197 20,-197 14,-197 8,-191 8,-185 8,-185 8,-138 8,-138 8,-132 14,-126 20,-126"/>
<text text-anchor="middle" x="29.5" y="-185" font-family="Helvetica,sans-Serif" font-size="10.00" fill="#4b5563">inputs</text>
</g>
<g id="clust3" class="cluster">
<title>cluster_out</title>
<path fill="white" stroke="#9ca3af" stroke-dasharray="5,2" d="M139,-8C139,-8 185,-8 185,-8 191,-8 197,-14 197,-20 197,-20 197,-165 197,-165 197,-171 191,-177 185,-177 185,-177 139,-177 139,-177 133,-177 127,-171 127,-165 127,-165 127,-20 127,-20 127,-14 133,-8 139,-8"/>
<text text-anchor="middle" x="151.5" y="-165" font-family="Helvetica,sans-Serif" font-size="10.00" fill="#4b5563">outputs</text>
</g>
<g id="clust5" class="cluster">
<title>cluster_b0</title>
<path fill="white" stroke="#c4b5fd" d="M258,-121C258,-121 330,-121 330,-121 336,-121 342,-127 342,-133 342,-133 342,-205 342,-205 342,-211 336,-217 330,-217 330,-217 258,-217 258,-217 252,-217 246,-211 246,-205 246,-205 246,-133 246,-133 246,-127 252,-121 258,-121"/>
<text text-anchor="middle" x="294" y="-205.8" font-family="Helvetica,sans-Serif" font-size="9.00" fill="#6d28d9">always_ff @ line 31</text>
</g>
<g id="clust6" class="cluster">
<title>cluster_b1</title>
<path fill="white" stroke="#c4b5fd" d="M641,-49C641,-49 713,-49 713,-49 719,-49 725,-55 725,-61 725,-61 725,-172 725,-172 725,-178 719,-184 713,-184 713,-184 641,-184 641,-184 635,-184 629,-178 629,-172 629,-172 629,-61 629,-61 629,-55 635,-49 641,-49"/>
<text text-anchor="middle" x="677" y="-172.8" font-family="Helvetica,sans-Serif" font-size="9.00" fill="#6d28d9">always_ff @ line 43</text>
</g>
<!-- in:pulse_i -->
<g id="node1" class="node">
<title>in:pulse_i</title>
<path fill="#dcfce7" stroke="#15803d" d="M58,-170C58,-170 28,-170 28,-170 22,-170 16,-164 16,-158 16,-158 16,-146 16,-146 16,-140 22,-134 28,-134 28,-134 58,-134 58,-134 64,-134 70,-140 70,-146 70,-146 70,-158 70,-158 70,-164 64,-170 58,-170"/>
<text text-anchor="middle" x="43" y="-149.8" font-family="Helvetica,sans-Serif" font-size="9.00">pulse_i</text>
</g>
<!-- out:drop_o -->
<g id="node3" class="node">
<title>out:drop_o</title>
<path fill="#dbeafe" stroke="#1d4ed8" d="M177,-150C177,-150 147,-150 147,-150 141,-150 135,-144 135,-138 135,-138 135,-126 135,-126 135,-120 141,-114 147,-114 147,-114 177,-114 177,-114 183,-114 189,-120 189,-126 189,-126 189,-138 189,-138 189,-144 183,-150 177,-150"/>
<text text-anchor="middle" x="162" y="-129.8" font-family="Helvetica,sans-Serif" font-size="9.00">drop_o</text>
</g>
<!-- in:pulse_i&#45;&gt;out:drop_o -->
<g id="edge1" class="edge">
<title>in:pulse_i&#45;&gt;out:drop_o</title>
<path fill="none" stroke="#4b5563" stroke-width="0.9" d="M70.26,-147.51C87.57,-144.55 110.36,-140.66 128.77,-137.51"/>
<polygon fill="#4b5563" stroke="#4b5563" stroke-width="0.9" points="129.27,-139.55 134.83,-136.47 128.56,-135.41 129.27,-139.55"/>
</g>
<!-- sig:req_tog -->
<g id="node5" class="node">
<title>sig:req_tog</title>
<polygon fill="#ede9fe" stroke="#7c3aed" points="321,-169 267,-169 267,-133 321,-133 321,-169"/>
<polygon fill="none" stroke="#7c3aed" points="325,-173 263,-173 263,-129 325,-129 325,-173"/>
<text text-anchor="middle" x="294" y="-148.8" font-family="Helvetica,sans-Serif" font-size="9.00">req_tog</text>
</g>
<!-- in:pulse_i&#45;&gt;sig:req_tog -->
<g id="edge2" class="edge">
<title>in:pulse_i&#45;&gt;sig:req_tog</title>
<path fill="none" stroke="#4b5563" stroke-width="0.9" d="M70.35,-163.34C86.39,-169.63 107.49,-176.8 127,-180 157.7,-185.04 166.22,-184.55 197,-180 217.27,-177.01 239.19,-170.63 256.97,-164.62"/>
<polygon fill="#4b5563" stroke="#4b5563" stroke-width="0.9" points="257.84,-166.55 262.83,-162.61 256.47,-162.58 257.84,-166.55"/>
</g>
<!-- out:busy_o -->
<g id="node2" class="node">
<title>out:busy_o</title>
<path fill="#dbeafe" stroke="#1d4ed8" d="M177,-52C177,-52 147,-52 147,-52 141,-52 135,-46 135,-40 135,-40 135,-28 135,-28 135,-22 141,-16 147,-16 147,-16 177,-16 177,-16 183,-16 189,-22 189,-28 189,-28 189,-40 189,-40 189,-46 183,-52 177,-52"/>
<text text-anchor="middle" x="162" y="-31.8" font-family="Helvetica,sans-Serif" font-size="9.00">busy_o</text>
</g>
<!-- out:busy_o&#45;&gt;out:drop_o -->
<g id="edge5" class="edge">
<title>out:busy_o&#45;&gt;out:drop_o</title>
<path fill="none" stroke="#4b5563" stroke-width="0.9" d="M134.97,-41.29C122.81,-46.07 109.61,-53.68 102.5,-65.5 94.25,-79.21 94.16,-87.85 102.5,-101.5 108.53,-111.36 118.87,-118.17 129.25,-122.8"/>
<polygon fill="#4b5563" stroke="#4b5563" stroke-width="0.9" points="128.65,-124.82 135,-125.16 130.24,-120.94 128.65,-124.82"/>
</g>
<!-- out:busy_o&#45;&gt;sig:req_tog -->
<g id="edge6" class="edge">
<title>out:busy_o&#45;&gt;sig:req_tog</title>
<path fill="none" stroke="#4b5563" stroke-width="0.9" d="M179.59,-52.14C185.23,-56.63 191.5,-61.38 197,-66 219.32,-84.76 242.98,-107.4 261.23,-124.69"/>
<polygon fill="#4b5563" stroke="#4b5563" stroke-width="0.9" points="259.94,-126.37 265.75,-128.96 262.83,-123.31 259.94,-126.37"/>
</g>
<!-- out:pulse_o -->
<g id="node4" class="node">
<title>out:pulse_o</title>
<path fill="#dbeafe" stroke="#1d4ed8" d="M177,-101C177,-101 147,-101 147,-101 141,-101 135,-95 135,-89 135,-89 135,-77 135,-77 135,-71 141,-65 147,-65 147,-65 177,-65 177,-65 183,-65 189,-71 189,-77 189,-77 189,-89 189,-89 189,-95 183,-101 177,-101"/>
<text text-anchor="middle" x="162" y="-80.8" font-family="Helvetica,sans-Serif" font-size="9.00">pulse_o</text>
</g>
<!-- sig:req_tog&#45;&gt;out:busy_o -->
<g id="edge14" class="edge">
<title>sig:req_tog&#45;&gt;out:busy_o</title>
<path fill="none" stroke="#4b5563" stroke-width="0.9" d="M275.94,-128.91C257.23,-108.27 225.98,-77.36 197,-53 196.07,-52.22 195.13,-51.44 194.16,-50.66"/>
<polygon fill="#4b5563" stroke="#4b5563" stroke-width="0.9" points="195.27,-48.86 189.26,-46.8 192.67,-52.16 195.27,-48.86"/>
</g>
<!-- sig:req_tog&#45;&gt;sig:req_tog -->
<g id="edge15" class="edge">
<title>sig:req_tog&#45;&gt;sig:req_tog</title>
<path fill="none" stroke="#4b5563" stroke-width="0.9" d="M269.26,-173.22C269.51,-180.35 277.76,-186 294,-186 305.42,-186 312.89,-183.21 316.4,-179.07"/>
<polygon fill="#4b5563" stroke="#4b5563" stroke-width="0.9" points="318.47,-179.57 318.74,-173.22 314.57,-178.01 318.47,-179.57"/>
</g>
<!-- inst:u_req -->
<g id="node11" class="node">
<title>inst:u_req</title>
<polygon fill="#fef9c3" stroke="#a16207" points="453,-165 399,-165 399,-129 453,-129 453,-165"/>
<text text-anchor="start" x="407.5" y="-149.8" font-family="Helvetica,sans-Serif" font-weight="bold" font-size="9.00">bit_sync</text>
<text text-anchor="start" x="413.5" y="-140.8" font-family="Helvetica,sans-Serif" font-size="9.00" fill="#4b5563">u_req</text>
</g>
<!-- sig:req_tog&#45;&gt;inst:u_req -->
<g id="edge13" class="edge">
<title>sig:req_tog&#45;&gt;inst:u_req</title>
<path fill="none" stroke="#4b5563" stroke-width="0.9" d="M325.15,-150.07C345.41,-149.45 372.07,-148.63 392.75,-147.99"/>
<polygon fill="#4b5563" stroke="#4b5563" stroke-width="0.9" points="393.03,-150.08 398.97,-147.8 392.9,-145.89 393.03,-150.08"/>
</g>
<!-- sig:ack_tog -->
<g id="node6" class="node">
<title>sig:ack_tog</title>
<polygon fill="#ede9fe" stroke="#7c3aed" points="704,-154 650,-154 650,-118 704,-118 704,-154"/>
<polygon fill="none" stroke="#7c3aed" points="708,-158 646,-158 646,-114 708,-114 708,-158"/>
<text text-anchor="middle" x="677" y="-133.8" font-family="Helvetica,sans-Serif" font-size="9.00">ack_tog</text>
</g>
<!-- inst:u_ack -->
<g id="node10" class="node">
<title>inst:u_ack</title>
<polygon fill="#fef9c3" stroke="#a16207" points="836,-122 782,-122 782,-86 836,-86 836,-122"/>
<text text-anchor="start" x="790.5" y="-106.8" font-family="Helvetica,sans-Serif" font-weight="bold" font-size="9.00">bit_sync</text>
<text text-anchor="start" x="796.5" y="-97.8" font-family="Helvetica,sans-Serif" font-size="9.00" fill="#4b5563">u_ack</text>
</g>
<!-- sig:ack_tog&#45;&gt;inst:u_ack -->
<g id="edge8" class="edge">
<title>sig:ack_tog&#45;&gt;inst:u_ack</title>
<path fill="none" stroke="#4b5563" stroke-width="0.9" d="M708.15,-128.58C728.5,-123.57 755.31,-116.97 776.02,-111.87"/>
<polygon fill="#4b5563" stroke="#4b5563" stroke-width="0.9" points="776.64,-113.88 781.97,-110.41 775.64,-109.8 776.64,-113.88"/>
</g>
<!-- sig:req_d -->
<g id="node7" class="node">
<title>sig:req_d</title>
<polygon fill="#ede9fe" stroke="#7c3aed" points="704,-97 650,-97 650,-61 704,-61 704,-97"/>
<polygon fill="none" stroke="#7c3aed" points="708,-101 646,-101 646,-57 708,-57 708,-101"/>
<text text-anchor="middle" x="677" y="-76.8" font-family="Helvetica,sans-Serif" font-size="9.00">req_d</text>
</g>
<!-- sig:req_d&#45;&gt;out:pulse_o -->
<g id="edge9" class="edge">
<title>sig:req_d&#45;&gt;out:pulse_o</title>
<path fill="none" stroke="#4b5563" stroke-width="0.9" d="M645.8,-79.24C555.51,-79.94 288.2,-82.02 195.27,-82.75"/>
<polygon fill="#4b5563" stroke="#4b5563" stroke-width="0.9" points="195.13,-80.65 189.15,-82.8 195.16,-84.85 195.13,-80.65"/>
</g>
<!-- sig:ack_s -->
<g id="node8" class="node">
<title>sig:ack_s</title>
<ellipse fill="#fff7ed" stroke="#c2410c" cx="928" cy="-53" rx="27" ry="18"/>
<text text-anchor="middle" x="928" y="-50.8" font-family="Helvetica,sans-Serif" font-size="9.00">ack_s</text>
</g>
<!-- sig:ack_s&#45;&gt;out:busy_o -->
<g id="edge7" class="edge">
<title>sig:ack_s&#45;&gt;out:busy_o</title>
<path fill="none" stroke="#4b5563" stroke-width="0.9" d="M901.24,-49.73C856.1,-44.3 759.72,-34 678,-34 425,-34 425,-34 425,-34 342.12,-34 244.5,-34 195.1,-34"/>
<polygon fill="#4b5563" stroke="#4b5563" stroke-width="0.9" points="195.03,-31.9 189.03,-34 195.03,-36.1 195.03,-31.9"/>
</g>
<!-- sig:req_s -->
<g id="node9" class="node">
<title>sig:req_s</title>
<ellipse fill="#fff7ed" stroke="#c2410c" cx="545" cy="-126" rx="27" ry="18"/>
<text text-anchor="middle" x="545" y="-123.8" font-family="Helvetica,sans-Serif" font-size="9.00">req_s</text>
</g>
<!-- sig:req_s&#45;&gt;out:pulse_o -->
<g id="edge10" class="edge">
<title>sig:req_s&#45;&gt;out:pulse_o</title>
<path fill="none" stroke="#4b5563" stroke-width="0.9" d="M518.13,-123.08C450.63,-115.46 269.25,-94.99 195.18,-86.63"/>
<polygon fill="#4b5563" stroke="#4b5563" stroke-width="0.9" points="195.39,-84.54 189.19,-85.96 194.91,-88.72 195.39,-84.54"/>
</g>
<!-- sig:req_s&#45;&gt;sig:ack_tog -->
<g id="edge11" class="edge">
<title>sig:req_s&#45;&gt;sig:ack_tog</title>
<path fill="none" stroke="#4b5563" stroke-width="0.9" d="M571.99,-128C591.42,-129.49 618.21,-131.55 639.74,-133.21"/>
<polygon fill="#4b5563" stroke="#4b5563" stroke-width="0.9" points="639.81,-135.32 645.95,-133.69 640.13,-131.13 639.81,-135.32"/>
</g>
<!-- sig:req_s&#45;&gt;sig:req_d -->
<g id="edge12" class="edge">
<title>sig:req_s&#45;&gt;sig:req_d</title>
<path fill="none" stroke="#4b5563" stroke-width="0.9" d="M569.24,-117.6C588.82,-110.52 617.16,-100.27 639.72,-92.12"/>
<polygon fill="#4b5563" stroke="#4b5563" stroke-width="0.9" points="640.69,-94 645.62,-89.98 639.26,-90.05 640.69,-94"/>
</g>
<!-- inst:u_ack&#45;&gt;sig:ack_s -->
<g id="edge3" class="edge">
<title>inst:u_ack&#45;&gt;sig:ack_s</title>
<path fill="none" stroke="#4b5563" stroke-width="0.9" d="M836.26,-92.55C854.94,-84.41 880.01,-73.48 899.06,-65.18"/>
<polygon fill="#4b5563" stroke="#4b5563" stroke-width="0.9" points="900.1,-67.02 904.76,-62.69 898.42,-63.17 900.1,-67.02"/>
</g>
<!-- inst:u_req&#45;&gt;sig:req_s -->
<g id="edge4" class="edge">
<title>inst:u_req&#45;&gt;sig:req_s</title>
<path fill="none" stroke="#4b5563" stroke-width="0.9" d="M453.26,-142.29C470.81,-139.14 494,-134.97 512.54,-131.65"/>
<polygon fill="#4b5563" stroke="#4b5563" stroke-width="0.9" points="513.1,-133.68 518.63,-130.55 512.36,-129.55 513.1,-133.68"/>
</g>
</g>
</svg>
